<svg width="30" height="30" viewBox="0 0 30 30" fill="none" xmlns="http://www.w3.org/2000/svg">
<path d="M1.54104 2.98979C2.36664 2.98979 3.03593 2.3205 3.03593 1.49489C3.03593 0.669287 2.36664 0 1.54104 0C0.71543 0 0.0461426 0.669287 0.0461426 1.49489C0.0461426 2.3205 0.71543 2.98979 1.54104 2.98979Z" fill="#F67537"/>
<path d="M5.97957 7.51957C6.80518 7.51957 7.47446 6.85028 7.47446 6.02468C7.47446 5.19907 6.80518 4.52979 5.97957 4.52979C5.15397 4.52979 4.48468 5.19907 4.48468 6.02468C4.48468 6.85028 5.15397 7.51957 5.97957 7.51957Z" fill="#F67537"/>
<path d="M5.97957 2.98979C6.80518 2.98979 7.47446 2.3205 7.47446 1.49489C7.47446 0.669287 6.80518 0 5.97957 0C5.15397 0 4.48468 0.669287 4.48468 1.49489C4.48468 2.3205 5.15397 2.98979 5.97957 2.98979Z" fill="#F67537"/>
<path d="M10.5097 7.51957C11.3353 7.51957 12.0046 6.85028 12.0046 6.02468C12.0046 5.19907 11.3353 4.52979 10.5097 4.52979C9.68412 4.52979 9.01483 5.19907 9.01483 6.02468C9.01483 6.85028 9.68412 7.51957 10.5097 7.51957Z" fill="#F67537"/>
<path d="M10.5097 11.959C11.3353 11.959 12.0046 11.2897 12.0046 10.4641C12.0046 9.63852 11.3353 8.96924 10.5097 8.96924C9.68412 8.96924 9.01483 9.63852 9.01483 10.4641C9.01483 11.2897 9.68412 11.959 10.5097 11.959Z" fill="#F67537"/>
<path d="M10.5097 2.98979C11.3353 2.98979 12.0046 2.3205 12.0046 1.49489C12.0046 0.669287 11.3353 0 10.5097 0C9.68412 0 9.01483 0.669287 9.01483 1.49489C9.01483 2.3205 9.68412 2.98979 10.5097 2.98979Z" fill="#F67537"/>
<path d="M14.9492 7.51957C15.7748 7.51957 16.4441 6.85028 16.4441 6.02468C16.4441 5.19907 15.7748 4.52979 14.9492 4.52979C14.1236 4.52979 13.4543 5.19907 13.4543 6.02468C13.4543 6.85028 14.1236 7.51957 14.9492 7.51957Z" fill="#F67537"/>
<path d="M14.9492 11.959C15.7748 11.959 16.4441 11.2897 16.4441 10.4641C16.4441 9.63852 15.7748 8.96924 14.9492 8.96924C14.1236 8.96924 13.4543 9.63852 13.4543 10.4641C13.4543 11.2897 14.1236 11.959 14.9492 11.959Z" fill="#F67537"/>
<path d="M14.9492 2.98979C15.7748 2.98979 16.4441 2.3205 16.4441 1.49489C16.4441 0.669287 15.7748 0 14.9492 0C14.1236 0 13.4543 0.669287 13.4543 1.49489C13.4543 2.3205 14.1236 2.98979 14.9492 2.98979Z" fill="#F67537"/>
<path d="M19.3886 7.51957C20.2142 7.51957 20.8835 6.85028 20.8835 6.02468C20.8835 5.19907 20.2142 4.52979 19.3886 4.52979C18.563 4.52979 17.8937 5.19907 17.8937 6.02468C17.8937 6.85028 18.563 7.51957 19.3886 7.51957Z" fill="#F67537"/>
<path d="M19.3886 11.959C20.2142 11.959 20.8835 11.2897 20.8835 10.4641C20.8835 9.63852 20.2142 8.96924 19.3886 8.96924C18.563 8.96924 17.8937 9.63852 17.8937 10.4641C17.8937 11.2897 18.563 11.959 19.3886 11.959Z" fill="#F67537"/>
<path d="M14.9492 16.3985C15.7748 16.3985 16.4441 15.7292 16.4441 14.9036C16.4441 14.078 15.7748 13.4087 14.9492 13.4087C14.1236 13.4087 13.4543 14.078 13.4543 14.9036C13.4543 15.7292 14.1236 16.3985 14.9492 16.3985Z" fill="#F67537"/>
<path d="M19.3886 16.3985C20.2142 16.3985 20.8835 15.7292 20.8835 14.9036C20.8835 14.078 20.2142 13.4087 19.3886 13.4087C18.563 13.4087 17.8937 14.078 17.8937 14.9036C17.8937 15.7292 18.563 16.3985 19.3886 16.3985Z" fill="#F67537"/>
<path d="M10.5098 20.9285C11.3354 20.9285 12.0048 20.2591 12.0048 19.4335C12.0048 18.6078 11.3354 17.9385 10.5098 17.9385C9.6841 17.9385 9.01477 18.6078 9.01477 19.4335C9.01477 20.2591 9.6841 20.9285 10.5098 20.9285Z" fill="#F67537"/>
<path d="M14.9492 20.9285C15.7748 20.9285 16.4442 20.2591 16.4442 19.4335C16.4442 18.6078 15.7748 17.9385 14.9492 17.9385C14.1235 17.9385 13.4542 18.6078 13.4542 19.4335C13.4542 20.2591 14.1235 20.9285 14.9492 20.9285Z" fill="#F67537"/>
<path d="M19.3886 20.9285C20.2142 20.9285 20.8835 20.2591 20.8835 19.4335C20.8835 18.6078 20.2142 17.9385 19.3886 17.9385C18.5629 17.9385 17.8936 18.6078 17.8936 19.4335C17.8936 20.2591 18.5629 20.9285 19.3886 20.9285Z" fill="#F67537"/>
<path d="M5.97957 25.3736C6.80518 25.3736 7.47446 24.7043 7.47446 23.8787C7.47446 23.0531 6.80518 22.3838 5.97957 22.3838C5.15397 22.3838 4.48468 23.0531 4.48468 23.8787C4.48468 24.7043 5.15397 25.3736 5.97957 25.3736Z" fill="#F67537"/>
<path d="M10.5097 25.3736C11.3353 25.3736 12.0046 24.7043 12.0046 23.8787C12.0046 23.0531 11.3353 22.3838 10.5097 22.3838C9.68412 22.3838 9.01483 23.0531 9.01483 23.8787C9.01483 24.7043 9.68412 25.3736 10.5097 25.3736Z" fill="#F67537"/>
<path d="M14.9492 25.3736C15.7748 25.3736 16.4441 24.7043 16.4441 23.8787C16.4441 23.0531 15.7748 22.3838 14.9492 22.3838C14.1236 22.3838 13.4543 23.0531 13.4543 23.8787C13.4543 24.7043 14.1236 25.3736 14.9492 25.3736Z" fill="#F67537"/>
<path d="M19.3886 25.3736C20.2142 25.3736 20.8835 24.7043 20.8835 23.8787C20.8835 23.0531 20.2142 22.3838 19.3886 22.3838C18.563 22.3838 17.8937 23.0531 17.8937 23.8787C17.8937 24.7043 18.563 25.3736 19.3886 25.3736Z" fill="#F67537"/>
<path d="M24.0149 11.959C24.8405 11.959 25.5097 11.2897 25.5097 10.4641C25.5097 9.63852 24.8405 8.96924 24.0149 8.96924C23.1892 8.96924 22.52 9.63852 22.52 10.4641C22.52 11.2897 23.1892 11.959 24.0149 11.959Z" fill="#F67537"/>
<path d="M24.0149 16.3985C24.8405 16.3985 25.5097 15.7292 25.5097 14.9036C25.5097 14.078 24.8405 13.4087 24.0149 13.4087C23.1892 13.4087 22.52 14.078 22.52 14.9036C22.52 15.7292 23.1892 16.3985 24.0149 16.3985Z" fill="#F67537"/>
<path d="M24.0149 20.9285C24.8406 20.9285 25.5099 20.2591 25.5099 19.4335C25.5099 18.6078 24.8406 17.9385 24.0149 17.9385C23.1892 17.9385 22.5199 18.6078 22.5199 19.4335C22.5199 20.2591 23.1892 20.9285 24.0149 20.9285Z" fill="#F67537"/>
<path d="M1.54016 29.9998C2.36582 29.9998 3.03516 29.3304 3.03516 28.5048C3.03516 27.6791 2.36582 27.0098 1.54016 27.0098C0.714498 27.0098 0.045166 27.6791 0.045166 28.5048C0.045166 29.3304 0.714498 29.9998 1.54016 29.9998Z" fill="#F67537"/>
<path d="M5.97961 29.9998C6.80528 29.9998 7.47461 29.3304 7.47461 28.5048C7.47461 27.6791 6.80528 27.0098 5.97961 27.0098C5.15395 27.0098 4.48462 27.6791 4.48462 28.5048C4.48462 29.3304 5.15395 29.9998 5.97961 29.9998Z" fill="#F67537"/>
<path d="M10.5098 29.9998C11.3354 29.9998 12.0048 29.3304 12.0048 28.5048C12.0048 27.6791 11.3354 27.0098 10.5098 27.0098C9.6841 27.0098 9.01477 27.6791 9.01477 28.5048C9.01477 29.3304 9.6841 29.9998 10.5098 29.9998Z" fill="#F67537"/>
<path d="M14.9492 29.9998C15.7748 29.9998 16.4442 29.3304 16.4442 28.5048C16.4442 27.6791 15.7748 27.0098 14.9492 27.0098C14.1235 27.0098 13.4542 27.6791 13.4542 28.5048C13.4542 29.3304 14.1235 29.9998 14.9492 29.9998Z" fill="#F67537"/>
<path d="M28.4599 16.3985C29.2855 16.3985 29.9548 15.7292 29.9548 14.9036C29.9548 14.078 29.2855 13.4087 28.4599 13.4087C27.6343 13.4087 26.965 14.078 26.965 14.9036C26.965 15.7292 27.6343 16.3985 28.4599 16.3985Z" fill="#F67537"/>
</svg>
