<svg width="30" height="30" viewBox="0 0 30 30" fill="none" xmlns="http://www.w3.org/2000/svg">
<path d="M28.459 2.98979C27.6334 2.98979 26.9641 2.3205 26.9641 1.49489C26.9641 0.669287 27.6334 0 28.459 0C29.2846 0 29.9539 0.669287 29.9539 1.49489C29.9539 2.3205 29.2846 2.98979 28.459 2.98979Z" fill="#F67537"/>
<path d="M24.0204 7.51957C23.1948 7.51957 22.5255 6.85028 22.5255 6.02468C22.5255 5.19907 23.1948 4.52979 24.0204 4.52979C24.846 4.52979 25.5153 5.19907 25.5153 6.02468C25.5153 6.85028 24.846 7.51957 24.0204 7.51957Z" fill="#F67537"/>
<path d="M24.0204 2.98979C23.1948 2.98979 22.5255 2.3205 22.5255 1.49489C22.5255 0.669287 23.1948 0 24.0204 0C24.846 0 25.5153 0.669287 25.5153 1.49489C25.5153 2.3205 24.846 2.98979 24.0204 2.98979Z" fill="#F67537"/>
<path d="M19.4903 7.51957C18.6647 7.51957 17.9954 6.85028 17.9954 6.02468C17.9954 5.19907 18.6647 4.52979 19.4903 4.52979C20.3159 4.52979 20.9852 5.19907 20.9852 6.02468C20.9852 6.85028 20.3159 7.51957 19.4903 7.51957Z" fill="#F67537"/>
<path d="M19.4903 11.959C18.6647 11.959 17.9954 11.2897 17.9954 10.4641C17.9954 9.63852 18.6647 8.96924 19.4903 8.96924C20.3159 8.96924 20.9852 9.63852 20.9852 10.4641C20.9852 11.2897 20.3159 11.959 19.4903 11.959Z" fill="#F67537"/>
<path d="M19.4903 2.98979C18.6647 2.98979 17.9954 2.3205 17.9954 1.49489C17.9954 0.669287 18.6647 0 19.4903 0C20.3159 0 20.9852 0.669287 20.9852 1.49489C20.9852 2.3205 20.3159 2.98979 19.4903 2.98979Z" fill="#F67537"/>
<path d="M15.0508 7.51957C14.2252 7.51957 13.5559 6.85028 13.5559 6.02468C13.5559 5.19907 14.2252 4.52979 15.0508 4.52979C15.8764 4.52979 16.5457 5.19907 16.5457 6.02468C16.5457 6.85028 15.8764 7.51957 15.0508 7.51957Z" fill="#F67537"/>
<path d="M15.0508 11.959C14.2252 11.959 13.5559 11.2897 13.5559 10.4641C13.5559 9.63852 14.2252 8.96924 15.0508 8.96924C15.8764 8.96924 16.5457 9.63852 16.5457 10.4641C16.5457 11.2897 15.8764 11.959 15.0508 11.959Z" fill="#F67537"/>
<path d="M15.0508 2.98979C14.2252 2.98979 13.5559 2.3205 13.5559 1.49489C13.5559 0.669287 14.2252 0 15.0508 0C15.8764 0 16.5457 0.669287 16.5457 1.49489C16.5457 2.3205 15.8764 2.98979 15.0508 2.98979Z" fill="#F67537"/>
<path d="M10.6114 7.51957C9.78582 7.51957 9.11654 6.85028 9.11654 6.02468C9.11654 5.19907 9.78582 4.52979 10.6114 4.52979C11.437 4.52979 12.1063 5.19907 12.1063 6.02468C12.1063 6.85028 11.437 7.51957 10.6114 7.51957Z" fill="#F67537"/>
<path d="M10.6114 11.959C9.78582 11.959 9.11654 11.2897 9.11654 10.4641C9.11654 9.63852 9.78582 8.96924 10.6114 8.96924C11.437 8.96924 12.1063 9.63852 12.1063 10.4641C12.1063 11.2897 11.437 11.959 10.6114 11.959Z" fill="#F67537"/>
<path d="M15.0508 16.3985C14.2252 16.3985 13.5559 15.7292 13.5559 14.9036C13.5559 14.078 14.2252 13.4087 15.0508 13.4087C15.8764 13.4087 16.5457 14.078 16.5457 14.9036C16.5457 15.7292 15.8764 16.3985 15.0508 16.3985Z" fill="#F67537"/>
<path d="M10.6114 16.3985C9.78582 16.3985 9.11654 15.7292 9.11654 14.9036C9.11654 14.078 9.78582 13.4087 10.6114 13.4087C11.437 13.4087 12.1063 14.078 12.1063 14.9036C12.1063 15.7292 11.437 16.3985 10.6114 16.3985Z" fill="#F67537"/>
<path d="M19.4902 20.9285C18.6646 20.9285 17.9952 20.2591 17.9952 19.4335C17.9952 18.6078 18.6646 17.9385 19.4902 17.9385C20.3159 17.9385 20.9852 18.6078 20.9852 19.4335C20.9852 20.2591 20.3159 20.9285 19.4902 20.9285Z" fill="#F67537"/>
<path d="M15.0508 20.9285C14.2252 20.9285 13.5558 20.2591 13.5558 19.4335C13.5558 18.6078 14.2252 17.9385 15.0508 17.9385C15.8765 17.9385 16.5458 18.6078 16.5458 19.4335C16.5458 20.2591 15.8765 20.9285 15.0508 20.9285Z" fill="#F67537"/>
<path d="M10.6114 20.9285C9.78578 20.9285 9.11645 20.2591 9.11645 19.4335C9.11645 18.6078 9.78578 17.9385 10.6114 17.9385C11.4371 17.9385 12.1064 18.6078 12.1064 19.4335C12.1064 20.2591 11.4371 20.9285 10.6114 20.9285Z" fill="#F67537"/>
<path d="M24.0204 25.3736C23.1948 25.3736 22.5255 24.7043 22.5255 23.8787C22.5255 23.0531 23.1948 22.3838 24.0204 22.3838C24.846 22.3838 25.5153 23.0531 25.5153 23.8787C25.5153 24.7043 24.846 25.3736 24.0204 25.3736Z" fill="#F67537"/>
<path d="M19.4903 25.3736C18.6647 25.3736 17.9954 24.7043 17.9954 23.8787C17.9954 23.0531 18.6647 22.3838 19.4903 22.3838C20.3159 22.3838 20.9852 23.0531 20.9852 23.8787C20.9852 24.7043 20.3159 25.3736 19.4903 25.3736Z" fill="#F67537"/>
<path d="M15.0508 25.3736C14.2252 25.3736 13.5559 24.7043 13.5559 23.8787C13.5559 23.0531 14.2252 22.3838 15.0508 22.3838C15.8764 22.3838 16.5457 23.0531 16.5457 23.8787C16.5457 24.7043 15.8764 25.3736 15.0508 25.3736Z" fill="#F67537"/>
<path d="M10.6114 25.3736C9.78582 25.3736 9.11654 24.7043 9.11654 23.8787C9.11654 23.0531 9.78582 22.3838 10.6114 22.3838C11.437 22.3838 12.1063 23.0531 12.1063 23.8787C12.1063 24.7043 11.437 25.3736 10.6114 25.3736Z" fill="#F67537"/>
<path d="M5.98515 11.959C5.15954 11.959 4.49025 11.2897 4.49025 10.4641C4.49025 9.63852 5.15954 8.96924 5.98515 8.96924C6.81075 8.96924 7.48004 9.63852 7.48004 10.4641C7.48004 11.2897 6.81075 11.959 5.98515 11.959Z" fill="#F67537"/>
<path d="M5.98515 16.3985C5.15954 16.3985 4.49025 15.7292 4.49025 14.9036C4.49025 14.078 5.15954 13.4087 5.98515 13.4087C6.81075 13.4087 7.48004 14.078 7.48004 14.9036C7.48004 15.7292 6.81075 16.3985 5.98515 16.3985Z" fill="#F67537"/>
<path d="M5.98511 20.9285C5.15944 20.9285 4.49011 20.2591 4.49011 19.4335C4.49011 18.6078 5.15944 17.9385 5.98511 17.9385C6.81077 17.9385 7.4801 18.6078 7.4801 19.4335C7.4801 20.2591 6.81077 20.9285 5.98511 20.9285Z" fill="#F67537"/>
<path d="M28.4598 29.9998C27.6342 29.9998 26.9648 29.3304 26.9648 28.5048C26.9648 27.6791 27.6342 27.0098 28.4598 27.0098C29.2855 27.0098 29.9548 27.6791 29.9548 28.5048C29.9548 29.3304 29.2855 29.9998 28.4598 29.9998Z" fill="#F67537"/>
<path d="M24.0204 29.9998C23.1947 29.9998 22.5254 29.3304 22.5254 28.5048C22.5254 27.6791 23.1947 27.0098 24.0204 27.0098C24.846 27.0098 25.5154 27.6791 25.5154 28.5048C25.5154 29.3304 24.846 29.9998 24.0204 29.9998Z" fill="#F67537"/>
<path d="M19.4902 29.9998C18.6646 29.9998 17.9952 29.3304 17.9952 28.5048C17.9952 27.6791 18.6646 27.0098 19.4902 27.0098C20.3159 27.0098 20.9852 27.6791 20.9852 28.5048C20.9852 29.3304 20.3159 29.9998 19.4902 29.9998Z" fill="#F67537"/>
<path d="M15.0508 29.9998C14.2252 29.9998 13.5558 29.3304 13.5558 28.5048C13.5558 27.6791 14.2252 27.0098 15.0508 27.0098C15.8765 27.0098 16.5458 27.6791 16.5458 28.5048C16.5458 29.3304 15.8765 29.9998 15.0508 29.9998Z" fill="#F67537"/>
<path d="M1.54014 16.3985C0.714532 16.3985 0.0452461 15.7292 0.0452461 14.9036C0.0452461 14.078 0.714532 13.4087 1.54014 13.4087C2.36575 13.4087 3.03503 14.078 3.03503 14.9036C3.03503 15.7292 2.36575 16.3985 1.54014 16.3985Z" fill="#F67537"/>
</svg>
