<svg width="40" height="40" viewBox="0 0 40 40" fill="none" xmlns="http://www.w3.org/2000/svg">
<path d="M2.05435 3.98638C3.15516 3.98638 4.04754 3.094 4.04754 1.99319C4.04754 0.892383 3.15516 0 2.05435 0C0.95354 0 0.0611572 0.892383 0.0611572 1.99319C0.0611572 3.094 0.95354 3.98638 2.05435 3.98638Z" fill="#D1D3D4"/>
<path d="M7.97268 10.0262C9.07349 10.0262 9.96587 9.13379 9.96587 8.03299C9.96587 6.93218 9.07349 6.03979 7.97268 6.03979C6.87187 6.03979 5.97949 6.93218 5.97949 8.03299C5.97949 9.13379 6.87187 10.0262 7.97268 10.0262Z" fill="#D1D3D4"/>
<path d="M7.97268 3.98638C9.07349 3.98638 9.96587 3.094 9.96587 1.99319C9.96587 0.892383 9.07349 0 7.97268 0C6.87187 0 5.97949 0.892383 5.97949 1.99319C5.97949 3.094 6.87187 3.98638 7.97268 3.98638Z" fill="#D1D3D4"/>
<path d="M14.013 10.0262C15.1138 10.0262 16.0062 9.13379 16.0062 8.03299C16.0062 6.93218 15.1138 6.03979 14.013 6.03979C12.9122 6.03979 12.0198 6.93218 12.0198 8.03299C12.0198 9.13379 12.9122 10.0262 14.013 10.0262Z" fill="#D1D3D4"/>
<path d="M14.013 15.9456C15.1138 15.9456 16.0062 15.0532 16.0062 13.9524C16.0062 12.8516 15.1138 11.9592 14.013 11.9592C12.9122 11.9592 12.0198 12.8516 12.0198 13.9524C12.0198 15.0532 12.9122 15.9456 14.013 15.9456Z" fill="#D1D3D4"/>
<path d="M14.013 3.98638C15.1138 3.98638 16.0062 3.094 16.0062 1.99319C16.0062 0.892383 15.1138 0 14.013 0C12.9122 0 12.0198 0.892383 12.0198 1.99319C12.0198 3.094 12.9122 3.98638 14.013 3.98638Z" fill="#D1D3D4"/>
<path d="M19.9322 10.0262C21.033 10.0262 21.9254 9.13379 21.9254 8.03299C21.9254 6.93218 21.033 6.03979 19.9322 6.03979C18.8313 6.03979 17.939 6.93218 17.939 8.03299C17.939 9.13379 18.8313 10.0262 19.9322 10.0262Z" fill="#D1D3D4"/>
<path d="M19.9322 15.9456C21.033 15.9456 21.9254 15.0532 21.9254 13.9524C21.9254 12.8516 21.033 11.9592 19.9322 11.9592C18.8313 11.9592 17.939 12.8516 17.939 13.9524C17.939 15.0532 18.8313 15.9456 19.9322 15.9456Z" fill="#D1D3D4"/>
<path d="M19.9322 3.98638C21.033 3.98638 21.9254 3.094 21.9254 1.99319C21.9254 0.892383 21.033 0 19.9322 0C18.8313 0 17.939 0.892383 17.939 1.99319C17.939 3.094 18.8313 3.98638 19.9322 3.98638Z" fill="#D1D3D4"/>
<path d="M25.8513 10.0262C26.9522 10.0262 27.8445 9.13379 27.8445 8.03299C27.8445 6.93218 26.9522 6.03979 25.8513 6.03979C24.7505 6.03979 23.8582 6.93218 23.8582 8.03299C23.8582 9.13379 24.7505 10.0262 25.8513 10.0262Z" fill="#D1D3D4"/>
<path d="M25.8513 15.9456C26.9522 15.9456 27.8445 15.0532 27.8445 13.9524C27.8445 12.8516 26.9522 11.9592 25.8513 11.9592C24.7505 11.9592 23.8582 12.8516 23.8582 13.9524C23.8582 15.0532 24.7505 15.9456 25.8513 15.9456Z" fill="#D1D3D4"/>
<path d="M19.9322 21.865C21.033 21.865 21.9254 20.9727 21.9254 19.8719C21.9254 18.771 21.033 17.8787 19.9322 17.8787C18.8313 17.8787 17.939 18.771 17.939 19.8719C17.939 20.9727 18.8313 21.865 19.9322 21.865Z" fill="#D1D3D4"/>
<path d="M25.8513 21.865C26.9522 21.865 27.8445 20.9727 27.8445 19.8719C27.8445 18.771 26.9522 17.8787 25.8513 17.8787C24.7505 17.8787 23.8582 18.771 23.8582 19.8719C23.8582 20.9727 24.7505 21.865 25.8513 21.865Z" fill="#D1D3D4"/>
<path d="M14.013 27.9049C15.1139 27.9049 16.0063 27.0124 16.0063 25.9115C16.0063 24.8107 15.1139 23.9182 14.013 23.9182C12.9121 23.9182 12.0197 24.8107 12.0197 25.9115C12.0197 27.0124 12.9121 27.9049 14.013 27.9049Z" fill="#D1D3D4"/>
<path d="M19.9322 27.9049C21.0331 27.9049 21.9255 27.0124 21.9255 25.9115C21.9255 24.8107 21.0331 23.9182 19.9322 23.9182C18.8313 23.9182 17.9388 24.8107 17.9388 25.9115C17.9388 27.0124 18.8313 27.9049 19.9322 27.9049Z" fill="#D1D3D4"/>
<path d="M25.8514 27.9049C26.9522 27.9049 27.8447 27.0124 27.8447 25.9115C27.8447 24.8107 26.9522 23.9182 25.8514 23.9182C24.7505 23.9182 23.858 24.8107 23.858 25.9115C23.858 27.0124 24.7505 27.9049 25.8514 27.9049Z" fill="#D1D3D4"/>
<path d="M7.97268 33.8314C9.07349 33.8314 9.96587 32.939 9.96587 31.8382C9.96587 30.7374 9.07349 29.845 7.97268 29.845C6.87187 29.845 5.97949 30.7374 5.97949 31.8382C5.97949 32.939 6.87187 33.8314 7.97268 33.8314Z" fill="#D1D3D4"/>
<path d="M14.013 33.8314C15.1138 33.8314 16.0062 32.939 16.0062 31.8382C16.0062 30.7374 15.1138 29.845 14.013 29.845C12.9122 29.845 12.0198 30.7374 12.0198 31.8382C12.0198 32.939 12.9122 33.8314 14.013 33.8314Z" fill="#D1D3D4"/>
<path d="M19.9322 33.8314C21.033 33.8314 21.9254 32.939 21.9254 31.8382C21.9254 30.7374 21.033 29.845 19.9322 29.845C18.8313 29.845 17.939 30.7374 17.939 31.8382C17.939 32.939 18.8313 33.8314 19.9322 33.8314Z" fill="#D1D3D4"/>
<path d="M25.8513 33.8314C26.9522 33.8314 27.8445 32.939 27.8445 31.8382C27.8445 30.7374 26.9522 29.845 25.8513 29.845C24.7505 29.845 23.8582 30.7374 23.8582 31.8382C23.8582 32.939 24.7505 33.8314 25.8513 33.8314Z" fill="#D1D3D4"/>
<path d="M32.0198 15.9456C33.1206 15.9456 34.013 15.0532 34.013 13.9524C34.013 12.8516 33.1206 11.9592 32.0198 11.9592C30.919 11.9592 30.0266 12.8516 30.0266 13.9524C30.0266 15.0532 30.919 15.9456 32.0198 15.9456Z" fill="#D1D3D4"/>
<path d="M32.0198 21.865C33.1206 21.865 34.013 20.9727 34.013 19.8719C34.013 18.771 33.1206 17.8787 32.0198 17.8787C30.919 17.8787 30.0266 18.771 30.0266 19.8719C30.0266 20.9727 30.919 21.865 32.0198 21.865Z" fill="#D1D3D4"/>
<path d="M32.0198 27.9049C33.1207 27.9049 34.0131 27.0124 34.0131 25.9115C34.0131 24.8107 33.1207 23.9182 32.0198 23.9182C30.9189 23.9182 30.0265 24.8107 30.0265 25.9115C30.0265 27.0124 30.9189 27.9049 32.0198 27.9049Z" fill="#D1D3D4"/>
<path d="M2.05351 40.0001C3.15439 40.0001 4.04683 39.1076 4.04683 38.0068C4.04683 36.9059 3.15439 36.0134 2.05351 36.0134C0.952623 36.0134 0.0601807 36.9059 0.0601807 38.0068C0.0601807 39.1076 0.952623 40.0001 2.05351 40.0001Z" fill="#D1D3D4"/>
<path d="M7.97282 40.0001C9.0737 40.0001 9.96615 39.1076 9.96615 38.0068C9.96615 36.9059 9.0737 36.0134 7.97282 36.0134C6.87193 36.0134 5.97949 36.9059 5.97949 38.0068C5.97949 39.1076 6.87193 40.0001 7.97282 40.0001Z" fill="#D1D3D4"/>
<path d="M14.013 40.0001C15.1139 40.0001 16.0063 39.1076 16.0063 38.0068C16.0063 36.9059 15.1139 36.0134 14.013 36.0134C12.9121 36.0134 12.0197 36.9059 12.0197 38.0068C12.0197 39.1076 12.9121 40.0001 14.013 40.0001Z" fill="#D1D3D4"/>
<path d="M19.9322 40.0001C21.0331 40.0001 21.9255 39.1076 21.9255 38.0068C21.9255 36.9059 21.0331 36.0134 19.9322 36.0134C18.8313 36.0134 17.9388 36.9059 17.9388 38.0068C17.9388 39.1076 18.8313 40.0001 19.9322 40.0001Z" fill="#D1D3D4"/>
<path d="M37.9464 21.865C39.0473 21.865 39.9396 20.9727 39.9396 19.8719C39.9396 18.771 39.0473 17.8787 37.9464 17.8787C36.8456 17.8787 35.9532 18.771 35.9532 19.8719C35.9532 20.9727 36.8456 21.865 37.9464 21.865Z" fill="#D1D3D4"/>
</svg>
