<svg width="38" height="40" viewBox="0 0 38 40" fill="none" xmlns="http://www.w3.org/2000/svg">
<path d="M35.6737 36.0136C34.6388 36.0136 33.7998 36.906 33.7998 38.0068C33.7998 39.1076 34.6388 40 35.6737 40C36.7086 40 37.5476 39.1076 37.5476 38.0068C37.5476 36.906 36.7086 36.0136 35.6737 36.0136Z" fill="white"/>
<path d="M30.1101 29.9738C29.0752 29.9738 28.2363 30.8662 28.2363 31.967C28.2363 33.0678 29.0752 33.9602 30.1101 33.9602C31.145 33.9602 31.984 33.0678 31.984 31.967C31.984 30.8662 31.145 29.9738 30.1101 29.9738Z" fill="white"/>
<path d="M30.1101 36.0136C29.0752 36.0136 28.2363 36.906 28.2363 38.0068C28.2363 39.1076 29.0752 40 30.1101 40C31.145 40 31.984 39.1076 31.984 38.0068C31.984 36.906 31.145 36.0136 30.1101 36.0136Z" fill="white"/>
<path d="M24.4314 29.9738C23.3965 29.9738 22.5575 30.8662 22.5575 31.967C22.5575 33.0678 23.3965 33.9602 24.4314 33.9602C25.4663 33.9602 26.3053 33.0678 26.3053 31.967C26.3053 30.8662 25.4663 29.9738 24.4314 29.9738Z" fill="white"/>
<path d="M24.4314 24.0544C23.3965 24.0544 22.5575 24.9468 22.5575 26.0476C22.5575 27.1484 23.3965 28.0408 24.4314 28.0408C25.4663 28.0408 26.3053 27.1484 26.3053 26.0476C26.3053 24.9468 25.4663 24.0544 24.4314 24.0544Z" fill="white"/>
<path d="M24.4314 36.0136C23.3965 36.0136 22.5575 36.906 22.5575 38.0068C22.5575 39.1076 23.3965 40 24.4314 40C25.4663 40 26.3053 39.1076 26.3053 38.0068C26.3053 36.906 25.4663 36.0136 24.4314 36.0136Z" fill="white"/>
<path d="M18.8665 29.9738C17.8316 29.9738 16.9926 30.8662 16.9926 31.967C16.9926 33.0678 17.8316 33.9602 18.8665 33.9602C19.9014 33.9602 20.7404 33.0678 20.7404 31.967C20.7404 30.8662 19.9014 29.9738 18.8665 29.9738Z" fill="white"/>
<path d="M18.8665 24.0544C17.8316 24.0544 16.9926 24.9468 16.9926 26.0476C16.9926 27.1484 17.8316 28.0408 18.8665 28.0408C19.9014 28.0408 20.7404 27.1484 20.7404 26.0476C20.7404 24.9468 19.9014 24.0544 18.8665 24.0544Z" fill="white"/>
<path d="M18.8665 36.0136C17.8316 36.0136 16.9926 36.906 16.9926 38.0068C16.9926 39.1076 17.8316 40 18.8665 40C19.9014 40 20.7404 39.1076 20.7404 38.0068C20.7404 36.906 19.9014 36.0136 18.8665 36.0136Z" fill="white"/>
<path d="M13.3017 29.9738C12.2667 29.9738 11.4278 30.8662 11.4278 31.967C11.4278 33.0678 12.2667 33.9602 13.3017 33.9602C14.3366 33.9602 15.1755 33.0678 15.1755 31.967C15.1755 30.8662 14.3366 29.9738 13.3017 29.9738Z" fill="white"/>
<path d="M13.3017 24.0544C12.2667 24.0544 11.4278 24.9468 11.4278 26.0476C11.4278 27.1484 12.2667 28.0408 13.3017 28.0408C14.3366 28.0408 15.1755 27.1484 15.1755 26.0476C15.1755 24.9468 14.3366 24.0544 13.3017 24.0544Z" fill="white"/>
<path d="M18.8665 18.135C17.8316 18.135 16.9926 19.0273 16.9926 20.1281C16.9926 21.229 17.8316 22.1213 18.8665 22.1213C19.9014 22.1213 20.7404 21.229 20.7404 20.1281C20.7404 19.0273 19.9014 18.135 18.8665 18.135Z" fill="white"/>
<path d="M13.3017 18.135C12.2667 18.135 11.4278 19.0273 11.4278 20.1281C11.4278 21.229 12.2667 22.1213 13.3017 22.1213C14.3366 22.1213 15.1755 21.229 15.1755 20.1281C15.1755 19.0273 14.3366 18.135 13.3017 18.135Z" fill="white"/>
<path d="M24.4314 12.0951C23.3964 12.0951 22.5574 12.9876 22.5574 14.0885C22.5574 15.1893 23.3964 16.0818 24.4314 16.0818C25.4664 16.0818 26.3054 15.1893 26.3054 14.0885C26.3054 12.9876 25.4664 12.0951 24.4314 12.0951Z" fill="white"/>
<path d="M18.8666 12.0951C17.8316 12.0951 16.9926 12.9876 16.9926 14.0885C16.9926 15.1893 17.8316 16.0818 18.8666 16.0818C19.9016 16.0818 20.7406 15.1893 20.7406 14.0885C20.7406 12.9876 19.9016 12.0951 18.8666 12.0951Z" fill="white"/>
<path d="M13.3016 12.0951C12.2667 12.0951 11.4276 12.9876 11.4276 14.0885C11.4276 15.1893 12.2667 16.0818 13.3016 16.0818C14.3366 16.0818 15.1757 15.1893 15.1757 14.0885C15.1757 12.9876 14.3366 12.0951 13.3016 12.0951Z" fill="white"/>
<path d="M30.1101 6.16865C29.0752 6.16865 28.2363 7.06103 28.2363 8.16184C28.2363 9.26265 29.0752 10.155 30.1101 10.155C31.145 10.155 31.984 9.26265 31.984 8.16184C31.984 7.06103 31.145 6.16865 30.1101 6.16865Z" fill="white"/>
<path d="M24.4314 6.16865C23.3965 6.16865 22.5575 7.06103 22.5575 8.16184C22.5575 9.26265 23.3965 10.155 24.4314 10.155C25.4663 10.155 26.3053 9.26265 26.3053 8.16184C26.3053 7.06103 25.4663 6.16865 24.4314 6.16865Z" fill="white"/>
<path d="M18.8665 6.16865C17.8316 6.16865 16.9926 7.06103 16.9926 8.16184C16.9926 9.26265 17.8316 10.155 18.8665 10.155C19.9014 10.155 20.7404 9.26265 20.7404 8.16184C20.7404 7.06103 19.9014 6.16865 18.8665 6.16865Z" fill="white"/>
<path d="M13.3017 6.16865C12.2667 6.16865 11.4278 7.06103 11.4278 8.16184C11.4278 9.26265 12.2667 10.155 13.3017 10.155C14.3366 10.155 15.1755 9.26265 15.1755 8.16184C15.1755 7.06103 14.3366 6.16865 13.3017 6.16865Z" fill="white"/>
<path d="M7.50246 24.0544C6.46754 24.0544 5.62858 24.9468 5.62858 26.0476C5.62858 27.1484 6.46754 28.0408 7.50246 28.0408C8.53738 28.0408 9.37634 27.1484 9.37634 26.0476C9.37634 24.9468 8.53738 24.0544 7.50246 24.0544Z" fill="white"/>
<path d="M7.50246 18.135C6.46755 18.135 5.62858 19.0273 5.62858 20.1281C5.62858 21.229 6.46755 22.1213 7.50246 22.1213C8.53738 22.1213 9.37634 21.229 9.37634 20.1281C9.37634 19.0273 8.53738 18.135 7.50246 18.135Z" fill="white"/>
<path d="M7.50246 12.0951C6.46747 12.0951 5.62845 12.9876 5.62845 14.0885C5.62845 15.1893 6.46747 16.0818 7.50246 16.0818C8.53744 16.0818 9.37646 15.1893 9.37647 14.0885C9.37647 12.9876 8.53744 12.0951 7.50246 12.0951Z" fill="white"/>
<path d="M35.6746 -8.4336e-05C34.6396 -8.44323e-05 33.8006 0.892357 33.8006 1.99324C33.8006 3.09413 34.6396 3.98657 35.6746 3.98657C36.7096 3.98657 37.5486 3.09413 37.5486 1.99324C37.5486 0.892358 36.7096 -8.42398e-05 35.6746 -8.4336e-05Z" fill="white"/>
<path d="M30.1101 -8.4336e-05C29.0751 -8.44323e-05 28.2361 0.892357 28.2361 1.99324C28.2361 3.09413 29.0751 3.98657 30.1101 3.98657C31.1451 3.98657 31.9841 3.09413 31.9841 1.99324C31.9841 0.892358 31.1451 -8.42398e-05 30.1101 -8.4336e-05Z" fill="white"/>
<path d="M24.4314 -8.4336e-05C23.3964 -8.44323e-05 22.5574 0.892357 22.5574 1.99324C22.5574 3.09413 23.3964 3.98657 24.4314 3.98657C25.4664 3.98657 26.3054 3.09413 26.3054 1.99324C26.3054 0.892358 25.4664 -8.42398e-05 24.4314 -8.4336e-05Z" fill="white"/>
<path d="M18.8666 -8.4336e-05C17.8316 -8.44323e-05 16.9926 0.892357 16.9926 1.99324C16.9926 3.09413 17.8316 3.98657 18.8666 3.98657C19.9016 3.98657 20.7406 3.09413 20.7406 1.99324C20.7406 0.892358 19.9016 -8.42398e-05 18.8666 -8.4336e-05Z" fill="white"/>
<path d="M1.93056 18.135C0.895646 18.135 0.0566828 19.0273 0.0566828 20.1281C0.0566827 21.229 0.895646 22.1213 1.93056 22.1213C2.96548 22.1213 3.80444 21.229 3.80444 20.1281C3.80444 19.0273 2.96548 18.135 1.93056 18.135Z" fill="white"/>
</svg>
