<svg width="35" height="47" viewBox="0 0 35 47" fill="none" xmlns="http://www.w3.org/2000/svg">
<path d="M33.0143 42.0573C32.055 42.0573 31.2773 43.0994 31.2773 44.385C31.2773 45.6705 32.055 46.7126 33.0143 46.7126C33.9736 46.7126 34.7512 45.6705 34.7512 44.385C34.7512 43.0994 33.9736 42.0573 33.0143 42.0573Z" fill="white"/>
<path d="M27.8573 35.0037C26.898 35.0037 26.1203 36.0459 26.1203 37.3314C26.1203 38.6169 26.898 39.6591 27.8573 39.6591C28.8166 39.6591 29.5942 38.6169 29.5942 37.3314C29.5942 36.0459 28.8166 35.0037 27.8573 35.0037Z" fill="white"/>
<path d="M27.8573 42.0573C26.898 42.0573 26.1203 43.0994 26.1203 44.385C26.1203 45.6705 26.898 46.7126 27.8573 46.7126C28.8166 46.7126 29.5942 45.6705 29.5942 44.385C29.5942 43.0994 28.8166 42.0573 27.8573 42.0573Z" fill="white"/>
<path d="M22.5936 35.0037C21.6343 35.0037 20.8567 36.0459 20.8567 37.3314C20.8567 38.6169 21.6343 39.6591 22.5936 39.6591C23.5529 39.6591 24.3306 38.6169 24.3306 37.3314C24.3306 36.0459 23.5529 35.0037 22.5936 35.0037Z" fill="white"/>
<path d="M22.5936 28.0913C21.6343 28.0913 20.8567 29.1334 20.8567 30.4189C20.8567 31.7045 21.6343 32.7466 22.5936 32.7466C23.5529 32.7466 24.3306 31.7045 24.3306 30.4189C24.3306 29.1334 23.5529 28.0913 22.5936 28.0913Z" fill="white"/>
<path d="M22.5936 42.0573C21.6343 42.0573 20.8567 43.0994 20.8567 44.385C20.8567 45.6705 21.6343 46.7126 22.5936 46.7126C23.5529 46.7126 24.3306 45.6705 24.3306 44.385C24.3306 43.0994 23.5529 42.0573 22.5936 42.0573Z" fill="white"/>
<path d="M17.4354 35.0037C16.4761 35.0037 15.6985 36.0459 15.6984 37.3314C15.6984 38.6169 16.4761 39.6591 17.4354 39.6591C18.3947 39.6591 19.1724 38.6169 19.1724 37.3314C19.1724 36.0459 18.3947 35.0037 17.4354 35.0037Z" fill="white"/>
<path d="M17.4354 28.0913C16.4761 28.0913 15.6985 29.1334 15.6984 30.4189C15.6984 31.7045 16.4761 32.7466 17.4354 32.7466C18.3947 32.7466 19.1724 31.7045 19.1724 30.4189C19.1724 29.1334 18.3947 28.0913 17.4354 28.0913Z" fill="white"/>
<path d="M17.4354 42.0573C16.4761 42.0573 15.6985 43.0994 15.6985 44.385C15.6985 45.6705 16.4761 46.7126 17.4354 46.7126C18.3947 46.7126 19.1724 45.6705 19.1724 44.385C19.1724 43.0994 18.3947 42.0573 17.4354 42.0573Z" fill="white"/>
<path d="M12.277 35.0037C11.3177 35.0037 10.54 36.0459 10.54 37.3314C10.54 38.6169 11.3177 39.6591 12.277 39.6591C13.2363 39.6591 14.0139 38.6169 14.0139 37.3314C14.0139 36.0459 13.2363 35.0037 12.277 35.0037Z" fill="white"/>
<path d="M12.277 28.0913C11.3177 28.0913 10.54 29.1334 10.54 30.4189C10.54 31.7045 11.3177 32.7466 12.277 32.7466C13.2363 32.7466 14.0139 31.7045 14.0139 30.4189C14.0139 29.1334 13.2363 28.0913 12.277 28.0913Z" fill="white"/>
<path d="M17.4354 21.1788C16.4761 21.1788 15.6984 22.2209 15.6984 23.5064C15.6984 24.792 16.4761 25.8341 17.4354 25.8341C18.3947 25.8341 19.1724 24.792 19.1724 23.5064C19.1724 22.2209 18.3947 21.1788 17.4354 21.1788Z" fill="white"/>
<path d="M12.277 21.1788C11.3177 21.1788 10.54 22.2209 10.54 23.5064C10.54 24.792 11.3177 25.8341 12.277 25.8341C13.2363 25.8341 14.0139 24.792 14.0139 23.5064C14.0139 22.2209 13.2363 21.1788 12.277 21.1788Z" fill="white"/>
<path d="M22.5935 14.1254C21.6341 14.1254 20.8564 15.1676 20.8564 16.4532C20.8564 17.7388 21.6341 18.781 22.5935 18.781C23.5528 18.781 24.3306 17.7388 24.3306 16.4532C24.3306 15.1676 23.5529 14.1254 22.5935 14.1254Z" fill="white"/>
<path d="M17.4354 14.1251C16.4761 14.1251 15.6984 15.1673 15.6984 16.453C15.6984 17.7386 16.4761 18.7808 17.4355 18.7808C17.4355 17.4951 18.3948 14.1251 17.4354 14.1251Z" fill="white"/>
<path d="M12.2773 14.1254C11.318 14.1254 10.5403 15.1676 10.5403 16.4532C10.5403 17.7388 11.318 18.781 12.2773 18.781C13.2367 18.781 14.0144 17.7388 14.0144 16.4532C14.0144 15.1676 13.2367 14.1254 12.2773 14.1254Z" fill="white"/>
<path d="M27.8573 7.20368C26.898 7.20368 26.1203 8.24581 26.1203 9.53135C26.1203 10.8169 26.898 11.859 27.8573 11.859C28.8166 11.859 29.5942 10.8169 29.5942 9.53135C29.5942 8.24582 28.8166 7.20368 27.8573 7.20368Z" fill="white"/>
<path d="M22.5936 7.20368C21.6343 7.20368 20.8566 8.24581 20.8566 9.53135C20.8566 10.8169 21.6343 11.859 22.5936 11.859C23.5529 11.859 24.3306 10.8169 24.3306 9.53135C24.3306 8.24582 23.5529 7.20368 22.5936 7.20368Z" fill="white"/>
<path d="M17.4354 7.20368C16.4761 7.20368 15.6984 8.24581 15.6984 9.53135C15.6984 10.8169 16.4761 11.859 17.4354 11.859C18.3947 11.859 19.1724 10.8169 19.1724 9.53135C19.1724 8.24582 18.3947 7.20368 17.4354 7.20368Z" fill="white"/>
<path d="M12.277 7.20369C11.3177 7.20369 10.54 8.24582 10.54 9.53135C10.54 10.8169 11.3177 11.859 12.277 11.859C13.2363 11.859 14.0139 10.8169 14.0139 9.53135C14.0139 8.24582 13.2363 7.20369 12.277 7.20369Z" fill="white"/>
<path d="M6.90172 28.0913C5.94242 28.0913 5.16476 29.1334 5.16476 30.4189C5.16476 31.7045 5.94242 32.7466 6.90171 32.7466C7.86101 32.7466 8.63867 31.7045 8.63867 30.4189C8.63867 29.1334 7.86101 28.0913 6.90172 28.0913Z" fill="white"/>
<path d="M6.90172 21.1788C5.94243 21.1788 5.16477 22.2209 5.16477 23.5064C5.16477 24.792 5.94242 25.8341 6.90172 25.8341C7.86101 25.8341 8.63867 24.792 8.63867 23.5064C8.63867 22.2209 7.86101 21.1788 6.90172 21.1788Z" fill="white"/>
<path d="M6.9016 14.1254C5.94224 14.1254 5.16452 15.1676 5.16452 16.4532C5.16452 17.7388 5.94224 18.781 6.9016 18.781C7.86096 18.781 8.63867 17.7388 8.63867 16.4532C8.63867 15.1676 7.86096 14.1254 6.9016 14.1254Z" fill="white"/>
<path d="M33.0156 0.000472943C32.0563 0.000472898 31.2785 1.04268 31.2785 2.3283C31.2785 3.61392 32.0563 4.65613 33.0156 4.65613C33.975 4.65613 34.7527 3.61392 34.7527 2.3283C34.7527 1.04268 33.975 0.000472987 33.0156 0.000472943Z" fill="white"/>
<path d="M27.8574 -2.67827e-05C26.8981 -2.68269e-05 26.1203 1.04218 26.1203 2.3278C26.1203 3.61343 26.8981 4.65564 27.8574 4.65564C28.8168 4.65564 29.5945 3.61343 29.5945 2.3278C29.5945 1.04218 28.8168 -2.67386e-05 27.8574 -2.67827e-05Z" fill="white"/>
<path d="M22.5935 -2.29681e-05C21.6341 -2.30122e-05 20.8564 1.04218 20.8564 2.32781C20.8564 3.61343 21.6341 4.65564 22.5935 4.65564C23.5529 4.65564 24.3306 3.61343 24.3306 2.32781C24.3306 1.04218 23.5529 -2.29239e-05 22.5935 -2.29681e-05Z" fill="white"/>
<path d="M17.4353 -2.29681e-05C16.4759 -2.30122e-05 15.6982 1.04218 15.6982 2.32781C15.6982 3.61343 16.4759 4.65564 17.4353 4.65564C18.3946 4.65564 19.1724 3.61343 19.1724 2.32781C19.1724 1.04218 18.3946 -2.29239e-05 17.4353 -2.29681e-05Z" fill="white"/>
<path d="M1.73692 21.1788C0.777623 21.1788 -3.75464e-05 22.2209 -3.77601e-05 23.5064C-3.79737e-05 24.792 0.777623 25.8341 1.73692 25.8341C2.69621 25.8341 3.47388 24.792 3.47388 23.5064C3.47388 22.2209 2.69621 21.1788 1.73692 21.1788Z" fill="white"/>
</svg>
