<svg width="20" height="23" viewBox="0 0 23 26" fill="none" xmlns="http://www.w3.org/2000/svg">
<circle cx="15.5" cy="3.5" r="3.5" fill="#FFBC33"/>
<path d="M19.1666 16.8V10.6667C19.1666 6.43235 15.7343 3 11.5 3C7.26567 3 3.83332 6.43235 3.83332 10.6667V16.8L0.76664 22.9333H7.74407C8.09904 24.6829 9.64541 26 11.5 26C13.3545 26 14.9009 24.6829 15.2559 22.9333H22.2333L19.1666 16.8ZM11.5 24.4666C10.5002 24.4666 9.65769 23.825 9.34102 22.9333H13.6596C13.3423 23.825 12.4997 24.4666 11.5 24.4666ZM3.06666 21.4L5.36664 16.8V10.6667C5.36664 7.27954 8.11283 4.53336 11.5 4.53336C14.8871 4.53336 17.6333 7.27954 17.6333 10.6667V16.8L19.9333 21.4H3.06666V21.4Z" fill="white"/>
</svg>
