<svg width="38" height="38" viewBox="0 0 38 38" fill="none" xmlns="http://www.w3.org/2000/svg">
<circle cx="18.5903" cy="19.3065" r="17.0824" stroke="white" stroke-width="3"/>
<path fill-rule="evenodd" clip-rule="evenodd" d="M13.6557 21.3948H16.6406C16.9365 21.3948 17.1782 21.6476 17.1782 21.9571V23.5412C17.1782 23.8507 16.9365 24.1035 16.6406 24.1035H13.6557C13.3601 24.1035 13.1181 23.8507 13.1181 23.5412V21.9571C13.1181 21.6476 13.3601 21.3948 13.6557 21.3948ZM25.1877 11.8673L8.7558 16.4721L10.348 22.6883V17.3461L10.3483 17.3254L10.3486 17.3048L10.3492 17.2844V17.2841L10.3501 17.2641V17.2638L10.3527 17.2234V17.2228L10.3542 17.203V17.2024C10.3872 16.8171 10.5511 16.47 10.799 16.2111L10.812 16.1975L10.8252 16.1842L10.8388 16.171V16.1707L10.8523 16.1577L10.8659 16.1451V16.1448L10.8798 16.1321L10.8939 16.1198V16.1195L10.908 16.1072L10.9222 16.0951L10.9366 16.0831L10.9514 16.0714V16.0711L10.9661 16.0597V16.0594L10.9809 16.048L10.9959 16.0369L11.0109 16.0258V16.0255L11.0262 16.0147L11.0416 16.0039L11.0572 15.9934L11.0887 15.9728C11.1044 15.9629 11.1206 15.953 11.1368 15.9435L11.153 15.9342V15.9339L11.1692 15.925L11.1857 15.916V15.9157L11.2193 15.8985L11.2361 15.8901L11.2529 15.8821L11.27 15.8741L11.2871 15.8664V15.8661L11.3045 15.8587L11.3393 15.8445V15.8442C11.5087 15.7767 11.6921 15.7397 11.8843 15.7397H26.1795L25.1877 11.8673ZM8.20669 14.3288L24.6386 9.72398L24.4655 9.04858C24.4157 8.85437 24.2268 8.74093 24.0411 8.79303L8.27802 13.2101C8.10147 13.2597 7.97502 13.4691 8.03397 13.654L8.20669 14.3288ZM27.4107 15.7397H28.2032C29.0465 15.7397 29.7395 16.4641 29.7395 17.3461V28.8492C29.7395 29.7342 29.0494 30.4559 28.2032 30.4559H11.8843C11.0416 30.4559 10.348 29.7308 10.348 28.8492V26.9515C10.2133 26.7752 10.1146 26.5807 10.0577 26.3594L6.88534 13.9752C6.62478 13.158 7.19217 12.2274 7.97089 12.0088L23.7343 7.59173C24.5481 7.36392 25.3961 7.87656 25.6142 8.72737L27.4107 15.7397ZM11.8843 16.9848C11.8651 16.9848 11.8462 16.9863 11.828 16.9897L11.8112 16.9931V16.9934L11.7905 16.9987L11.7781 17.0027L11.7702 17.0054L11.7664 17.007L11.7584 17.0101V17.0104L11.7546 17.0119L11.7507 17.0135L11.7431 17.0172L11.7392 17.019L11.7316 17.0227L11.7277 17.0249L11.7204 17.0289L11.7168 17.031L11.7133 17.0332L11.7098 17.0353L11.7059 17.0375V17.0378L11.7024 17.04L11.6989 17.0421V17.0424L11.6956 17.0446L11.6921 17.0471L11.6885 17.0495L11.6853 17.052L11.6818 17.0548L11.6785 17.0572L11.675 17.06L11.6717 17.0625L11.6685 17.0652L11.6653 17.068L11.662 17.0708L11.6591 17.0736V17.0739L11.6558 17.0763V17.0767L11.6529 17.0794L11.6496 17.0825L11.6467 17.0853L11.6437 17.0884L11.6408 17.0914C11.5848 17.1497 11.5477 17.2277 11.54 17.3134V17.314L11.5397 17.3183V17.3186L11.5394 17.3226V17.3233L11.5391 17.3273V17.3279V17.3322L11.5388 17.3368V17.3414V17.3461V28.8492C11.5388 29.0502 11.6924 29.2108 11.8843 29.2108H28.2032C28.3922 29.2108 28.5487 29.0468 28.5487 28.8492V17.3461C28.5487 17.1457 28.3951 16.9848 28.2032 16.9848C22.7637 16.9848 17.3238 16.9848 11.8843 16.9848ZM18.0171 26.7024H27.1525V27.9102H18.0171V26.7024ZM19.9771 24.5428H27.1525V25.7508H19.9771V24.5428Z" fill="white"/>
</svg>
