<svg width="54" height="33" viewBox="0 0 54 33" fill="none" xmlns="http://www.w3.org/2000/svg">
<g clip-path="url(#clip0)">
<path d="M43.8734 10.2083C43.8087 10.2086 43.7444 10.2003 43.682 10.1836L25.978 5.3758C25.8267 5.33472 25.6932 5.24558 25.5981 5.12211C25.503 4.99865 25.4515 4.84769 25.4517 4.69248V0.708023C25.4519 0.599176 25.4774 0.49184 25.5264 0.394356C25.5753 0.296871 25.6464 0.211866 25.734 0.145944C25.8215 0.0800228 25.9233 0.0349604 26.0313 0.0142613C26.1394 -0.00643789 26.2508 -0.00221693 26.357 0.0265956L44.0667 4.82687C44.218 4.86796 44.3515 4.95709 44.4466 5.08056C44.5417 5.20403 44.5932 5.35498 44.593 5.51019V9.49654C44.5935 9.59015 44.5752 9.68292 44.5393 9.7695C44.5033 9.85607 44.4503 9.93473 44.3834 10.0009C44.3164 10.0671 44.2369 10.1195 44.1494 10.1551C44.0618 10.1907 43.968 10.2088 43.8734 10.2083ZM26.8775 4.15112L43.1576 8.56336V6.04398L26.8775 1.63552V4.15112Z" fill="white"/>
<path d="M53.2842 33C53.2196 33.0004 53.1552 32.9921 53.0928 32.9754L25.978 25.6255C25.827 25.5845 25.6937 25.4956 25.5986 25.3725C25.5036 25.2494 25.4519 25.0989 25.4517 24.944V4.69051C25.4516 4.5815 25.4769 4.47394 25.5257 4.37622C25.5746 4.27849 25.6456 4.19324 25.7332 4.12711C25.8208 4.06097 25.9227 4.01574 26.0309 3.99494C26.1391 3.97414 26.2507 3.97833 26.357 4.00719L44.0667 8.80746C44.218 8.84855 44.3515 8.93768 44.4466 9.06115C44.5417 9.18461 44.5932 9.33557 44.593 9.49078V14.486L53.4775 16.8937C53.6286 16.9347 53.7618 17.0236 53.8569 17.1467C53.952 17.2698 54.0036 17.4203 54.0039 17.5752V32.2921C54.0039 32.4799 53.9285 32.6599 53.7942 32.7927C53.66 32.9254 53.4779 33 53.2881 33H53.2842ZM26.8775 24.4046L52.5665 31.3665V18.1165L43.682 15.7088C43.5306 15.6677 43.3971 15.5786 43.302 15.4551C43.2069 15.3317 43.1555 15.1807 43.1556 15.0255V10.034L26.8775 5.62179V20.4163L48.7367 26.341V20.1438C48.7367 19.956 48.8121 19.7759 48.9464 19.6432C49.0806 19.5104 49.2627 19.4358 49.4525 19.4358C49.6424 19.4358 49.8244 19.5104 49.9587 19.6432C50.0929 19.7759 50.1683 19.956 50.1683 20.1438V27.2685C50.1681 27.3773 50.1426 27.4846 50.0936 27.5821C50.0446 27.6796 49.9736 27.7646 49.886 27.8305C49.7985 27.8965 49.6967 27.9415 49.5886 27.9622C49.4806 27.9829 49.3692 27.9787 49.263 27.9499L26.8699 21.8833L26.8775 24.4046ZM34.2252 20.5867C33.815 20.585 33.4069 20.529 33.0117 20.4201C30.2518 19.6724 28.0833 16.6439 28.0833 13.5415C28.0833 12.2165 28.4661 11.0808 29.2183 10.2176C30.225 9.0611 31.7906 8.61439 33.385 9.04596C36.1468 9.8031 38.3095 12.8165 38.3095 15.9246C38.3153 18.6257 36.5966 20.5848 34.2252 20.5848V20.5867ZM32.1811 10.2971C31.8253 10.2917 31.4727 10.3646 31.149 10.5107C30.8252 10.6567 30.5384 10.8721 30.3093 11.1413C29.8001 11.7262 29.5207 12.5799 29.5207 13.5415C29.5207 16.0022 31.2567 18.4762 33.3907 19.0535C33.6624 19.1286 33.9431 19.1674 34.2252 19.1689C35.7908 19.1689 36.8856 17.8439 36.8856 15.9246C36.8856 13.4639 35.1496 10.9899 33.0137 10.4107C32.7426 10.3357 32.4626 10.2969 32.1811 10.2952V10.2971Z" fill="white"/>
<path d="M53.2844 18.2832C53.2197 18.2837 53.1553 18.2754 53.093 18.2586L43.6821 15.7089C43.5308 15.6679 43.3973 15.5787 43.3022 15.4553C43.2071 15.3318 43.1556 15.1808 43.1558 15.0256V5.50647C43.156 5.35884 43.2029 5.21498 43.2899 5.09501C43.3769 4.97505 43.4997 4.88498 43.641 4.83742C43.7823 4.78986 43.9351 4.78719 44.078 4.82977C44.221 4.87235 44.3469 4.95806 44.4381 5.0749L53.849 17.1437C53.9297 17.249 53.979 17.3745 53.9914 17.5061C54.0037 17.6376 53.9786 17.7699 53.9189 17.8881C53.8591 18.0063 53.7671 18.1056 53.6533 18.1747C53.5395 18.2439 53.4084 18.2801 53.2748 18.2794L53.2844 18.2832ZM44.5893 14.4862L51.4144 16.3355L44.5893 7.58293V14.4862Z" fill="white"/>
<path d="M2.53515 31.9753C1.97768 31.9825 1.43341 31.8075 0.986769 31.4775C0.666207 31.2266 0.409793 30.9047 0.238236 30.5378C0.0666785 30.1708 -0.0152141 29.7691 -0.000826037 29.3651V10.0845C-0.000826037 8.39035 1.30831 6.7095 2.97727 6.2571L25.9771 0.023937C26.1601 -0.0262646 26.3558 -0.00251646 26.5211 0.0899555C26.6864 0.182428 26.8077 0.336049 26.8585 0.517026C26.9093 0.698003 26.8852 0.891511 26.7917 1.05498C26.6982 1.21845 26.5429 1.33848 26.3599 1.38869L3.35623 7.62185C2.31313 7.90578 1.4308 9.03392 1.4308 10.0826V29.3575C1.41973 29.544 1.4529 29.7305 1.52767 29.902C1.60244 30.0736 1.71674 30.2255 1.86144 30.3456C2.02442 30.4544 2.21079 30.5243 2.40579 30.5496C2.60079 30.5749 2.79907 30.5549 2.98493 30.4913L25.9771 24.26C26.1601 24.2098 26.3558 24.2336 26.5211 24.326C26.6864 24.4185 26.8077 24.5721 26.8585 24.7531C26.9093 24.9341 26.8852 25.1276 26.7917 25.2911C26.6982 25.4545 26.5429 25.5746 26.3599 25.6248L3.35623 31.8561C3.08917 31.932 2.81301 31.9721 2.53515 31.9753Z" fill="white"/>
<path d="M0.713862 18.796C0.61986 18.796 0.526778 18.7777 0.439932 18.7421C0.353085 18.7066 0.274175 18.6544 0.207705 18.5887C0.141236 18.5229 0.0885091 18.4449 0.0525361 18.359C0.016563 18.2731 -0.00195215 18.1811 -0.00195215 18.0881V12.7143C-0.00221053 12.5593 0.0489514 12.4085 0.143683 12.2851C0.238415 12.1617 0.371482 12.0724 0.522468 12.031L25.9779 5.13341C26.0842 5.10455 26.1958 5.10036 26.304 5.12116C26.4122 5.14196 26.5141 5.18719 26.6017 5.25333C26.6893 5.31946 26.7603 5.40471 26.8091 5.50244C26.858 5.60016 26.8833 5.70772 26.8832 5.81673V11.1924C26.8829 11.3473 26.8313 11.4978 26.7362 11.6209C26.6412 11.744 26.5079 11.8329 26.3569 11.8739L0.905257 18.7714C0.84287 18.7881 0.77849 18.7964 0.713862 18.796ZM1.42968 13.2537V17.1606L25.4477 10.6511V6.74422L1.42968 13.2537Z" fill="white"/>
<path d="M5.59268 27.7398C4.55341 27.7398 3.79932 26.9675 3.79932 25.9018V23.3654C3.81814 22.7877 4.01953 22.2303 4.37518 21.7716C4.73084 21.3129 5.22288 20.976 5.78216 20.8081L10.879 19.4264C11.066 19.375 11.2591 19.3489 11.4532 19.3488C12.4924 19.3488 13.2465 20.121 13.2465 21.1867V23.7231C13.2264 24.2996 13.0244 24.8554 12.6688 25.3127C12.3133 25.7699 11.8219 26.1056 11.2637 26.2728L6.16686 27.6546C5.98025 27.7086 5.78709 27.7372 5.59268 27.7398ZM11.4455 20.7722C11.3808 20.7725 11.3164 20.7814 11.2541 20.7987L6.15729 22.1805C5.90071 22.2641 5.67517 22.4216 5.50948 22.6326C5.3438 22.8437 5.24549 23.0988 5.22712 23.3654V25.9018C5.22712 26.0911 5.29028 26.3239 5.59077 26.3239C5.65548 26.3236 5.71986 26.3147 5.78216 26.2974L10.879 24.9156C11.1356 24.832 11.3611 24.6745 11.5268 24.4635C11.6925 24.2524 11.7908 23.9973 11.8092 23.7307V21.1867C11.8149 20.9974 11.746 20.7703 11.4455 20.7703V20.7722Z" fill="white"/>
</g>
<defs>
<clipPath id="clip0">
<rect width="54" height="33" fill="white"/>
</clipPath>
</defs>
</svg>
