<svg width="24" height="24" viewBox="0 0 24 24" fill="none" xmlns="http://www.w3.org/2000/svg">
<g clip-path="url(#clip0)">
<path d="M22.7669 21.6082C22.1065 21.6082 21.571 22.1436 21.571 22.8041C21.571 23.4646 22.1065 24 22.7669 24C23.4274 24 23.9629 23.4646 23.9629 22.8041C23.9629 22.1436 23.4274 21.6082 22.7669 21.6082Z" fill="black"/>
<path d="M19.2163 17.9841C18.5559 17.9841 18.0204 18.5196 18.0204 19.1801C18.0204 19.8405 18.5559 20.376 19.2163 20.376C19.8768 20.376 20.4123 19.8405 20.4123 19.1801C20.4123 18.5196 19.8768 17.9841 19.2163 17.9841Z" fill="black"/>
<path d="M19.2163 21.6082C18.5559 21.6082 18.0204 22.1436 18.0204 22.8041C18.0204 23.4646 18.5559 24 19.2163 24C19.8768 24 20.4123 23.4646 20.4123 22.8041C20.4123 22.1436 19.8768 21.6082 19.2163 21.6082Z" fill="black"/>
<path d="M15.5922 17.9841C14.9317 17.9841 14.3963 18.5196 14.3963 19.1801C14.3963 19.8405 14.9317 20.376 15.5922 20.376C16.2527 20.376 16.7881 19.8405 16.7881 19.1801C16.7881 18.5196 16.2527 17.9841 15.5922 17.9841Z" fill="black"/>
<path d="M15.5922 14.4324C14.9317 14.4324 14.3963 14.9678 14.3963 15.6283C14.3963 16.2888 14.9317 16.8242 15.5922 16.8242C16.2527 16.8242 16.7881 16.2888 16.7881 15.6283C16.7881 14.9678 16.2527 14.4324 15.5922 14.4324Z" fill="black"/>
<path d="M15.5922 21.6082C14.9317 21.6082 14.3963 22.1436 14.3963 22.8041C14.3963 23.4646 14.9317 24 15.5922 24C16.2527 24 16.7881 23.4646 16.7881 22.8041C16.7881 22.1436 16.2527 21.6082 15.5922 21.6082Z" fill="black"/>
<path d="M12.0407 17.9841C11.3802 17.9841 10.8448 18.5196 10.8448 19.1801C10.8448 19.8405 11.3802 20.376 12.0407 20.376C12.7012 20.376 13.2366 19.8405 13.2366 19.1801C13.2366 18.5196 12.7012 17.9841 12.0407 17.9841Z" fill="black"/>
<path d="M12.0407 14.4324C11.3802 14.4324 10.8448 14.9678 10.8448 15.6283C10.8448 16.2888 11.3802 16.8242 12.0407 16.8242C12.7012 16.8242 13.2366 16.2888 13.2366 15.6283C13.2366 14.9678 12.7012 14.4324 12.0407 14.4324Z" fill="black"/>
<path d="M12.0407 21.6082C11.3802 21.6082 10.8448 22.1436 10.8448 22.8041C10.8448 23.4646 11.3802 24 12.0407 24C12.7012 24 13.2366 23.4646 13.2366 22.8041C13.2366 22.1436 12.7012 21.6082 12.0407 21.6082Z" fill="black"/>
<path d="M8.48911 17.9841C7.82863 17.9841 7.2932 18.5196 7.2932 19.1801C7.2932 19.8405 7.82863 20.376 8.48911 20.376C9.1496 20.376 9.68503 19.8405 9.68503 19.1801C9.68503 18.5196 9.1496 17.9841 8.48911 17.9841Z" fill="black"/>
<path d="M8.48911 14.4324C7.82863 14.4324 7.2932 14.9678 7.2932 15.6283C7.2932 16.2888 7.82863 16.8242 8.48911 16.8242C9.1496 16.8242 9.68503 16.2888 9.68503 15.6283C9.68503 14.9678 9.1496 14.4324 8.48911 14.4324Z" fill="black"/>
<path d="M12.0407 10.8811C11.3802 10.8811 10.8448 11.4165 10.8448 12.077C10.8448 12.7375 11.3802 13.2729 12.0407 13.2729C12.7012 13.2729 13.2366 12.7375 13.2366 12.077C13.2366 11.4165 12.7012 10.8811 12.0407 10.8811Z" fill="black"/>
<path d="M8.48911 10.8811C7.82863 10.8811 7.2932 11.4165 7.2932 12.077C7.2932 12.7375 7.82863 13.2729 8.48911 13.2729C9.1496 13.2729 9.68503 12.7375 9.68503 12.077C9.68503 11.4165 9.1496 10.8811 8.48911 10.8811Z" fill="black"/>
<path d="M15.5922 7.25693C14.9317 7.25693 14.3962 7.7924 14.3962 8.45293C14.3962 9.11346 14.9317 9.64893 15.5922 9.64893C16.2527 9.64893 16.7882 9.11346 16.7882 8.45293C16.7882 7.7924 16.2527 7.25693 15.5922 7.25693Z" fill="black"/>
<path d="M12.0407 7.25693C11.3801 7.25693 10.8447 7.7924 10.8447 8.45293C10.8447 9.11346 11.3801 9.64893 12.0407 9.64893C12.7012 9.64893 13.2367 9.11346 13.2367 8.45293C13.2367 7.7924 12.7012 7.25693 12.0407 7.25693Z" fill="black"/>
<path d="M8.48915 7.25693C7.82862 7.25693 7.29316 7.7924 7.29316 8.45293C7.29316 9.11346 7.82862 9.64893 8.48915 9.64893C9.14968 9.64893 9.68515 9.11346 9.68515 8.45293C9.68515 7.7924 9.14968 7.25693 8.48915 7.25693Z" fill="black"/>
<path d="M19.2163 3.70095C18.5559 3.70095 18.0204 4.23638 18.0204 4.89686C18.0204 5.55735 18.5559 6.09277 19.2163 6.09277C19.8768 6.09277 20.4123 5.55735 20.4123 4.89686C20.4123 4.23638 19.8768 3.70095 19.2163 3.70095Z" fill="black"/>
<path d="M15.5922 3.70095C14.9317 3.70095 14.3963 4.23638 14.3963 4.89686C14.3963 5.55735 14.9317 6.09277 15.5922 6.09277C16.2527 6.09277 16.7881 5.55735 16.7881 4.89686C16.7881 4.23638 16.2527 3.70095 15.5922 3.70095Z" fill="black"/>
<path d="M12.0407 3.70095C11.3802 3.70095 10.8448 4.23638 10.8448 4.89686C10.8448 5.55735 11.3802 6.09277 12.0407 6.09277C12.7012 6.09277 13.2366 5.55735 13.2366 4.89686C13.2366 4.23638 12.7012 3.70095 12.0407 3.70095Z" fill="black"/>
<path d="M8.48914 3.70095C7.82865 3.70095 7.29322 4.23638 7.29322 4.89686C7.29322 5.55735 7.82865 6.09277 8.48914 6.09277C9.14963 6.09277 9.68506 5.55735 9.68506 4.89686C9.68506 4.23638 9.14963 3.70095 8.48914 3.70095Z" fill="black"/>
<path d="M4.78809 14.4324C4.12761 14.4324 3.59218 14.9678 3.59218 15.6283C3.59218 16.2888 4.12761 16.8242 4.78809 16.8242C5.44858 16.8242 5.98401 16.2888 5.98401 15.6283C5.98401 14.9678 5.44858 14.4324 4.78809 14.4324Z" fill="black"/>
<path d="M4.7881 10.8811C4.12761 10.8811 3.59218 11.4165 3.59218 12.077C3.59218 12.7375 4.12761 13.2729 4.78809 13.2729C5.44858 13.2729 5.98401 12.7375 5.98401 12.077C5.98401 11.4165 5.44858 10.8811 4.7881 10.8811Z" fill="black"/>
<path d="M4.78807 7.25693C4.12754 7.25693 3.59208 7.7924 3.59208 8.45293C3.59208 9.11346 4.12754 9.64893 4.78807 9.64893C5.4486 9.64893 5.98407 9.11346 5.98407 8.45293C5.98407 7.7924 5.4486 7.25693 4.78807 7.25693Z" fill="black"/>
<path d="M22.7679 9.33555e-05C22.1073 9.32978e-05 21.5719 0.535559 21.5719 1.19609C21.5719 1.85662 22.1073 2.39209 22.7679 2.39209C23.4284 2.39209 23.9639 1.85662 23.9639 1.19609C23.9639 0.535559 23.4284 9.34133e-05 22.7679 9.33555e-05Z" fill="black"/>
<path d="M19.2163 8.76335e-05C18.5558 8.75757e-05 18.0203 0.535555 18.0203 1.19609C18.0203 1.85662 18.5558 2.39209 19.2163 2.39209C19.8769 2.39209 20.4123 1.85662 20.4123 1.19609C20.4123 0.535555 19.8769 8.76912e-05 19.2163 8.76335e-05Z" fill="black"/>
<path d="M15.5922 8.76335e-05C14.9317 8.75757e-05 14.3962 0.535555 14.3962 1.19609C14.3962 1.85662 14.9317 2.39209 15.5922 2.39209C16.2527 2.39209 16.7882 1.85662 16.7882 1.19609C16.7882 0.535555 16.2527 8.76912e-05 15.5922 8.76335e-05Z" fill="black"/>
<path d="M12.0407 8.76335e-05C11.3801 8.75757e-05 10.8447 0.535555 10.8447 1.19609C10.8447 1.85662 11.3801 2.39209 12.0407 2.39209C12.7012 2.39209 13.2367 1.85662 13.2367 1.19609C13.2367 0.535555 12.7012 8.76912e-05 12.0407 8.76335e-05Z" fill="black"/>
<path d="M1.23212 10.8811C0.571636 10.8811 0.0362074 11.4165 0.0362073 12.077C0.0362072 12.7375 0.571636 13.2729 1.23212 13.2729C1.89261 13.2729 2.42804 12.7375 2.42804 12.077C2.42804 11.4165 1.89261 10.8811 1.23212 10.8811Z" fill="black"/>
</g>
<defs>
<clipPath id="clip0">
<rect width="24" height="24" fill="white" transform="translate(24 24) rotate(-180)"/>
</clipPath>
</defs>
</svg>
