<svg width="114" height="56" viewBox="0 0 114 56" fill="none" xmlns="http://www.w3.org/2000/svg">
<path d="M37.7541 49.14C36.9981 49.14 36.2888 49 35.6261 48.72C34.9728 48.4307 34.3988 48.034 33.9041 47.53C33.4188 47.0167 33.0361 46.4193 32.7561 45.738C32.4854 45.0567 32.3501 44.3193 32.3501 43.526C32.3501 42.742 32.4854 42.014 32.7561 41.342C33.0361 40.6607 33.4188 40.068 33.9041 39.564C34.3988 39.0507 34.9728 38.6493 35.6261 38.36C36.2794 38.0707 36.9888 37.926 37.7541 37.926C38.4728 37.926 39.0888 38.0193 39.6021 38.206C40.1248 38.3927 40.6474 38.7007 41.1701 39.13C41.2821 39.2233 41.3568 39.312 41.3941 39.396C41.4314 39.48 41.4501 39.5827 41.4501 39.704C41.4501 39.8813 41.3848 40.0307 41.2541 40.152C41.1328 40.264 40.9834 40.3293 40.8061 40.348C40.6288 40.3573 40.4561 40.2967 40.2881 40.166C39.9428 39.8673 39.5834 39.6387 39.2101 39.48C38.8461 39.3213 38.3608 39.242 37.7541 39.242C37.2034 39.242 36.6854 39.354 36.2001 39.578C35.7148 39.802 35.2854 40.11 34.9121 40.502C34.5481 40.894 34.2634 41.3513 34.0581 41.874C33.8528 42.3873 33.7501 42.938 33.7501 43.526C33.7501 44.1233 33.8528 44.6833 34.0581 45.206C34.2634 45.7193 34.5481 46.172 34.9121 46.564C35.2854 46.956 35.7148 47.264 36.2001 47.488C36.6854 47.7027 37.2034 47.81 37.7541 47.81C38.2301 47.81 38.6781 47.7307 39.0981 47.572C39.5274 47.404 39.9381 47.1753 40.3301 46.886C40.4981 46.7647 40.6614 46.7133 40.8201 46.732C40.9881 46.7413 41.1281 46.8067 41.2401 46.928C41.3521 47.04 41.4081 47.1987 41.4081 47.404C41.4081 47.6 41.3334 47.7727 41.1841 47.922C40.1761 48.734 39.0328 49.14 37.7541 49.14ZM46.2284 49.056C45.547 49.056 44.9357 48.888 44.3944 48.552C43.853 48.2067 43.4237 47.7447 43.1064 47.166C42.7984 46.578 42.6444 45.9153 42.6444 45.178C42.6444 44.4407 42.8124 43.778 43.1484 43.19C43.4937 42.602 43.9557 42.14 44.5344 41.804C45.1224 41.4587 45.7804 41.286 46.5084 41.286C47.2364 41.286 47.8897 41.4587 48.4684 41.804C49.047 42.14 49.5044 42.602 49.8404 43.19C50.1857 43.778 50.3584 44.4407 50.3584 45.178V48.3C50.3584 48.5053 50.2884 48.678 50.1484 48.818C50.0177 48.9487 49.8497 49.014 49.6444 49.014C49.439 49.014 49.2664 48.9487 49.1264 48.818C48.9957 48.678 48.9304 48.5053 48.9304 48.3V47.782C48.6037 48.174 48.207 48.4867 47.7404 48.72C47.283 48.944 46.779 49.056 46.2284 49.056ZM46.5084 47.796C46.9844 47.796 47.409 47.684 47.7824 47.46C48.1557 47.2267 48.4497 46.914 48.6644 46.522C48.879 46.1207 48.9864 45.6727 48.9864 45.178C48.9864 44.674 48.879 44.226 48.6644 43.834C48.4497 43.4327 48.1557 43.12 47.7824 42.896C47.409 42.6627 46.9844 42.546 46.5084 42.546C46.0417 42.546 45.617 42.6627 45.2344 42.896C44.861 43.12 44.5624 43.4327 44.3384 43.834C44.1237 44.226 44.0164 44.674 44.0164 45.178C44.0164 45.6727 44.1237 46.1207 44.3384 46.522C44.5624 46.914 44.861 47.2267 45.2344 47.46C45.617 47.684 46.0417 47.796 46.5084 47.796ZM53.1836 49C52.717 49 52.4836 48.7667 52.4836 48.3V42.042C52.4836 41.5753 52.717 41.342 53.1836 41.342C53.6503 41.342 53.8836 41.5753 53.8836 42.042V42.308C54.1636 41.9813 54.5043 41.7247 54.9056 41.538C55.3163 41.3513 55.7596 41.258 56.2356 41.258C56.7956 41.258 57.211 41.3513 57.4816 41.538C57.7616 41.7153 57.869 41.93 57.8036 42.182C57.757 42.378 57.6636 42.5087 57.5236 42.574C57.3836 42.63 57.2203 42.6393 57.0336 42.602C56.4363 42.4807 55.8996 42.4713 55.4236 42.574C54.9476 42.6767 54.5696 42.868 54.2896 43.148C54.019 43.428 53.8836 43.7827 53.8836 44.212V48.3C53.8836 48.7667 53.6503 49 53.1836 49ZM62.0782 49C61.6116 49 61.1916 48.8833 60.8182 48.65C60.4449 48.4073 60.1509 48.0807 59.9362 47.67C59.7216 47.2593 59.6142 46.7973 59.6142 46.284V42.826H58.9702C58.7742 42.826 58.6156 42.77 58.4942 42.658C58.3729 42.546 58.3122 42.406 58.3122 42.238C58.3122 42.0513 58.3729 41.902 58.4942 41.79C58.6156 41.678 58.7742 41.622 58.9702 41.622H59.6142V39.606C59.6142 39.4007 59.6796 39.2327 59.8102 39.102C59.9409 38.9713 60.1089 38.906 60.3142 38.906C60.5196 38.906 60.6876 38.9713 60.8182 39.102C60.9489 39.2327 61.0142 39.4007 61.0142 39.606V41.622H62.2042C62.4002 41.622 62.5589 41.678 62.6802 41.79C62.8016 41.902 62.8622 42.0513 62.8622 42.238C62.8622 42.406 62.8016 42.546 62.6802 42.658C62.5589 42.77 62.4002 42.826 62.2042 42.826H61.0142V46.284C61.0142 46.6573 61.1169 46.97 61.3222 47.222C61.5276 47.474 61.7796 47.6 62.0782 47.6H62.5542C62.7222 47.6 62.8622 47.6653 62.9742 47.796C63.0956 47.9267 63.1562 48.0947 63.1562 48.3C63.1562 48.5053 63.0769 48.6733 62.9182 48.804C62.7689 48.9347 62.5729 49 62.3302 49H62.0782ZM68.1034 49.056C67.422 49.056 66.8107 48.888 66.2694 48.552C65.728 48.2067 65.2987 47.7447 64.9814 47.166C64.6734 46.578 64.5194 45.9153 64.5194 45.178C64.5194 44.4407 64.6874 43.778 65.0234 43.19C65.3687 42.602 65.8307 42.14 66.4094 41.804C66.9974 41.4587 67.6554 41.286 68.3834 41.286C69.1114 41.286 69.7647 41.4587 70.3434 41.804C70.922 42.14 71.3794 42.602 71.7154 43.19C72.0607 43.778 72.2334 44.4407 72.2334 45.178V48.3C72.2334 48.5053 72.1634 48.678 72.0234 48.818C71.8927 48.9487 71.7247 49.014 71.5194 49.014C71.314 49.014 71.1414 48.9487 71.0014 48.818C70.8707 48.678 70.8054 48.5053 70.8054 48.3V47.782C70.4787 48.174 70.082 48.4867 69.6154 48.72C69.158 48.944 68.654 49.056 68.1034 49.056ZM68.3834 47.796C68.8594 47.796 69.284 47.684 69.6574 47.46C70.0307 47.2267 70.3247 46.914 70.5394 46.522C70.754 46.1207 70.8614 45.6727 70.8614 45.178C70.8614 44.674 70.754 44.226 70.5394 43.834C70.3247 43.4327 70.0307 43.12 69.6574 42.896C69.284 42.6627 68.8594 42.546 68.3834 42.546C67.9167 42.546 67.492 42.6627 67.1094 42.896C66.736 43.12 66.4374 43.4327 66.2134 43.834C65.9987 44.226 65.8914 44.674 65.8914 45.178C65.8914 45.6727 65.9987 46.1207 66.2134 46.522C66.4374 46.914 66.736 47.2267 67.1094 47.46C67.492 47.684 67.9167 47.796 68.3834 47.796ZM77.8306 49.056C77.0746 49.056 76.4073 48.8927 75.8286 48.566C75.25 48.23 74.7926 47.7727 74.4566 47.194C74.13 46.606 73.9666 45.934 73.9666 45.178C73.9666 44.4127 74.13 43.7407 74.4566 43.162C74.7926 42.574 75.25 42.1167 75.8286 41.79C76.4073 41.454 77.0746 41.286 77.8306 41.286C78.5773 41.286 79.24 41.454 79.8186 41.79C80.3973 42.1167 80.85 42.574 81.1766 43.162C81.5126 43.7407 81.6806 44.4127 81.6806 45.178C81.6806 45.934 81.5173 46.606 81.1906 47.194C80.864 47.7727 80.4113 48.23 79.8326 48.566C79.254 48.8927 78.5866 49.056 77.8306 49.056ZM77.8306 47.796C78.316 47.796 78.7453 47.684 79.1186 47.46C79.492 47.236 79.7813 46.928 79.9866 46.536C80.2013 46.144 80.3086 45.6913 80.3086 45.178C80.3086 44.6647 80.2013 44.212 79.9866 43.82C79.7813 43.4187 79.492 43.106 79.1186 42.882C78.7453 42.658 78.316 42.546 77.8306 42.546C77.3453 42.546 76.916 42.658 76.5426 42.882C76.1693 43.106 75.8753 43.4187 75.6606 43.82C75.446 44.212 75.3386 44.6647 75.3386 45.178C75.3386 45.6913 75.446 46.144 75.6606 46.536C75.8753 46.928 76.1693 47.236 76.5426 47.46C76.916 47.684 77.3453 47.796 77.8306 47.796Z" fill="white"/>
<path d="M74.6713 0H39.493C38.8313 0.00154297 38.1972 0.266189 37.7298 0.735883C37.2625 1.20558 37 1.84196 37 2.50544V21.9401C37.0015 22.6026 37.2647 23.2374 37.7319 23.7059C38.1991 24.1743 38.8323 24.4382 39.493 24.4397H74.6713C75.332 24.4382 75.9652 24.1743 76.4324 23.7059C76.8996 23.2374 77.1628 22.6026 77.1643 21.9401V2.50544C77.1643 1.84196 76.9018 1.20558 76.4345 0.735883C75.9671 0.266189 75.333 0.00154297 74.6713 0ZM38.8828 5.73338H75.2815V7.41144H38.8828V5.73338ZM75.2815 21.9401C75.2807 22.1021 75.2162 22.2573 75.1019 22.3718C74.9876 22.4864 74.8329 22.5511 74.6713 22.5519H39.493C39.3312 22.5519 39.176 22.4874 39.0616 22.3727C38.9471 22.258 38.8828 22.1023 38.8828 21.9401V9.30509H75.2815V21.9401ZM38.8828 3.85721V2.51709C38.8825 2.43651 38.898 2.35664 38.9284 2.28208C38.9589 2.20751 39.0038 2.13972 39.0605 2.08261C39.1172 2.02549 39.1846 1.98016 39.2588 1.94923C39.3331 1.91831 39.4126 1.90239 39.493 1.90239H74.6713C74.8334 1.90316 74.9886 1.96826 75.1029 2.08346C75.2173 2.19865 75.2815 2.35457 75.2815 2.51709V3.85721H38.8828Z" fill="white"/>
<path d="M45.1938 17.0719H43.0088C42.7325 17.0722 42.4587 17.018 42.2033 16.9121C41.9479 16.8062 41.7159 16.6509 41.5205 16.4549C41.325 16.259 41.1701 16.0263 41.0645 15.7703C40.9589 15.5142 40.9048 15.2397 40.9052 14.9626V12.7689C40.9059 12.21 41.1279 11.6743 41.5223 11.2793C41.9168 10.8844 42.4514 10.6626 43.0088 10.6626H45.1938C45.751 10.6634 46.2852 10.8854 46.6795 11.2802C47.0737 11.675 47.296 12.2103 47.2975 12.7689V14.9626C47.2975 15.2396 47.2431 15.5139 47.1374 15.7698C47.0317 16.0257 46.8767 16.2582 46.6814 16.4541C46.486 16.6499 46.2541 16.8053 45.9989 16.9113C45.7436 17.0173 45.4701 17.0719 45.1938 17.0719ZM43.0088 12.5504C42.9798 12.55 42.951 12.5554 42.9241 12.5662C42.8971 12.5769 42.8726 12.5929 42.8518 12.6132C42.831 12.6335 42.8145 12.6577 42.803 12.6844C42.7916 12.7111 42.7855 12.7398 42.7851 12.7689V14.9626C42.7851 14.9921 42.7909 15.0213 42.8021 15.0485C42.8134 15.0757 42.8298 15.1004 42.8506 15.1213C42.8714 15.1421 42.8961 15.1586 42.9232 15.1699C42.9503 15.1812 42.9794 15.187 43.0088 15.187H45.1938C45.2231 15.187 45.252 15.1811 45.279 15.1698C45.306 15.1585 45.3305 15.142 45.351 15.1211C45.3716 15.1002 45.3878 15.0755 45.3987 15.0483C45.4096 15.0211 45.4151 14.992 45.4147 14.9626V12.7689C45.4147 12.74 45.4089 12.7113 45.3978 12.6846C45.3867 12.6579 45.3704 12.6337 45.3498 12.6134C45.3293 12.593 45.3049 12.577 45.2781 12.5662C45.2513 12.5554 45.2227 12.55 45.1938 12.5504H43.0088Z" fill="white"/>
<path d="M53.8439 17.0719H51.6646C51.388 17.0722 51.114 17.018 50.8583 16.9122C50.6026 16.8064 50.3701 16.6512 50.1742 16.4553C49.9783 16.2594 49.8229 16.0268 49.7166 15.7707C49.6104 15.5146 49.5556 15.24 49.5552 14.9626V12.7689C49.5575 12.2095 49.7807 11.6738 50.1761 11.279C50.5715 10.8842 51.1067 10.6626 51.6646 10.6626H53.8439C54.4021 10.6618 54.9377 10.8832 55.3333 11.2781C55.7288 11.6731 55.9518 12.2092 55.9533 12.7689V14.9626C55.9533 15.2401 55.8987 15.5149 55.7927 15.7712C55.6866 16.0274 55.5311 16.2602 55.3351 16.4562C55.1392 16.6521 54.9066 16.8073 54.6507 16.913C54.3948 17.0186 54.1206 17.0726 53.8439 17.0719ZM51.6646 12.5504C51.6358 12.55 51.6071 12.5554 51.5804 12.5662C51.5536 12.577 51.5292 12.5931 51.5087 12.6134C51.4881 12.6337 51.4718 12.6579 51.4607 12.6846C51.4496 12.7113 51.4438 12.74 51.4438 12.7689V14.9626C51.4434 14.992 51.4489 15.0211 51.4598 15.0483C51.4707 15.0755 51.4869 15.1002 51.5075 15.1211C51.528 15.142 51.5525 15.1585 51.5795 15.1698C51.6065 15.1811 51.6354 15.187 51.6646 15.187H53.8439C53.9032 15.187 53.9601 15.1633 54.0021 15.1213C54.044 15.0792 54.0676 15.0221 54.0676 14.9626V12.7689C54.0672 12.7398 54.0611 12.7111 54.0497 12.6844C54.0382 12.6577 54.0216 12.6335 54.0009 12.6132C53.9801 12.5929 53.9555 12.5769 53.9286 12.5662C53.9017 12.5554 53.8729 12.55 53.8439 12.5504H51.6646Z" fill="white"/>
<path d="M62.5027 17.0719H60.3147C59.7568 17.0719 59.2217 16.8496 58.8272 16.4541C58.4327 16.0585 58.2111 15.522 58.2111 14.9626V12.7689C58.2126 12.2103 58.4348 11.675 58.8291 11.2802C59.2233 10.8854 59.7575 10.6634 60.3147 10.6626H62.5027C63.0598 10.6634 63.594 10.8854 63.9883 11.2802C64.3826 11.675 64.6048 12.2103 64.6063 12.7689V14.9626C64.6056 15.5218 64.3837 16.0578 63.9893 16.4532C63.595 16.8486 63.0603 17.0711 62.5027 17.0719ZM60.3147 12.5504C60.2859 12.55 60.2572 12.5554 60.2304 12.5662C60.2037 12.577 60.1793 12.593 60.1588 12.6134C60.1382 12.6337 60.1219 12.6579 60.1108 12.6846C60.0996 12.7113 60.0939 12.74 60.0939 12.7689V14.9626C60.0935 14.992 60.0989 15.0211 60.1099 15.0483C60.1208 15.0755 60.137 15.1002 60.1575 15.1211C60.1781 15.1419 60.2026 15.1585 60.2295 15.1698C60.2565 15.1811 60.2855 15.187 60.3147 15.187H62.5027C62.5615 15.1862 62.6177 15.1622 62.659 15.1202C62.7003 15.0782 62.7235 15.0216 62.7235 14.9626V12.7689C62.7235 12.74 62.7178 12.7113 62.7066 12.6846C62.6955 12.6579 62.6792 12.6337 62.6586 12.6134C62.6381 12.593 62.6137 12.577 62.5869 12.5662C62.5602 12.5554 62.5315 12.55 62.5027 12.5504H60.3147Z" fill="white"/>
<path d="M71.1526 17.0719H68.9646C68.4072 17.0711 67.8729 16.8485 67.479 16.4531C67.0851 16.0576 66.8639 15.5215 66.8639 14.9626V12.7689C66.8647 12.2105 67.0862 11.6752 67.48 11.2804C67.8738 10.8855 68.4077 10.6634 68.9646 10.6626H71.1526C71.7105 10.6626 72.2458 10.8842 72.6411 11.279C73.0365 11.6738 73.2597 12.2095 73.2621 12.7689V14.9626C73.2617 15.24 73.2068 15.5146 73.1006 15.7707C72.9944 16.0268 72.8389 16.2594 72.643 16.4553C72.4471 16.6512 72.2147 16.8064 71.9589 16.9122C71.7032 17.018 71.4292 17.0722 71.1526 17.0719ZM68.9646 12.5504C68.9358 12.55 68.9071 12.5554 68.8804 12.5662C68.8536 12.577 68.8292 12.593 68.8087 12.6134C68.7881 12.6337 68.7718 12.6579 68.7607 12.6846C68.7496 12.7113 68.7438 12.74 68.7438 12.7689V14.9626C68.7438 15.0216 68.767 15.0782 68.8083 15.1202C68.8497 15.1622 68.9058 15.1862 68.9646 15.187H71.1526C71.2117 15.1862 71.2682 15.1623 71.3099 15.1204C71.3517 15.0785 71.3756 15.0219 71.3763 14.9626V12.7689C71.3748 12.7104 71.3506 12.6549 71.3088 12.614C71.267 12.5732 71.2109 12.5504 71.1526 12.5504H68.9646Z" fill="white"/>
<path d="M72.8988 19.2075C72.6915 19.208 72.489 19.2709 72.3177 19.3881C72.1619 19.2811 71.9799 19.2187 71.7914 19.2078C71.6028 19.1968 71.4148 19.2377 71.2478 19.326C71.0807 19.4143 70.9408 19.5467 70.8432 19.7088C70.7457 19.871 70.6941 20.0567 70.6941 20.2461C70.6941 20.4355 70.7457 20.6213 70.8432 20.7834C70.9408 20.9455 71.0807 21.0779 71.2478 21.1662C71.4148 21.2545 71.6028 21.2954 71.7914 21.2844C71.9799 21.2735 72.1619 21.2111 72.3177 21.1041C72.4517 21.1948 72.605 21.2528 72.7653 21.2734C72.9257 21.294 73.0886 21.2766 73.241 21.2227C73.3935 21.1687 73.5312 21.0797 73.6431 20.9627C73.755 20.8458 73.838 20.7042 73.8855 20.5492C73.933 20.3943 73.9436 20.2304 73.9165 20.0706C73.8893 19.9108 73.8252 19.7596 73.7293 19.6292C73.6333 19.4987 73.5083 19.3926 73.364 19.3194C73.2198 19.2462 73.0605 19.2078 72.8988 19.2075Z" fill="white"/>
</svg>
