<svg width="60" height="110" viewBox="0 0 60 110" fill="none" xmlns="http://www.w3.org/2000/svg">
<circle cx="30" cy="55" r="28.5" stroke="white" stroke-width="3"/>
<circle cx="30.5" cy="7.5" r="7.5" fill="white"/>
<circle cx="30.5" cy="102.5" r="7.5" fill="white"/>
<path d="M44.6789 39H15.3211C14.8705 39 14.5018 39.3687 14.5018 39.8193C14.5018 40.2699 14.8705 40.6386 15.3211 40.6386H17.0894V70.1602C17.0894 70.4606 17.2533 70.7406 17.5195 70.8839C17.7858 71.0273 18.1067 71.0137 18.3593 70.843L21.9164 68.4739L25.4871 70.8498C25.7602 71.0341 26.1221 71.0341 26.3952 70.8498L29.9522 68.4807L33.523 70.8566C33.7961 71.041 34.1579 71.041 34.431 70.8566L37.9881 68.4875L41.5588 70.8635C41.6953 70.9522 41.8524 71 42.0094 71C42.1391 71 42.2757 70.9659 42.3986 70.9044C42.6648 70.761 42.8287 70.4811 42.8287 70.1807L42.815 40.6591H44.6789C45.1295 40.6591 45.4982 40.2904 45.4982 39.8398C45.4982 39.3892 45.1295 39 44.6789 39ZM41.1969 68.6309L38.4455 66.8012C38.1724 66.6168 37.8106 66.6168 37.5375 66.8012L33.9804 69.1771L30.4097 66.8012C30.1366 66.6168 29.7747 66.6168 29.5016 66.8012L25.9445 69.1703L22.3738 66.8012C22.1007 66.6168 21.7389 66.6168 21.4658 66.8012L18.728 68.6241V40.6317H41.1901L41.1969 68.6309Z" fill="white"/>
<path d="M22.4967 52.0814H31.0787C31.5293 52.0814 31.898 51.7128 31.898 51.2622C31.898 50.8115 31.5293 50.4429 31.0787 50.4429H22.4967C22.046 50.4429 21.6774 50.8115 21.6774 51.2622C21.6774 51.7128 22.0392 52.0814 22.4967 52.0814Z" fill="white"/>
<path d="M22.4967 54.9286H28.9281C29.3787 54.9286 29.7473 54.5599 29.7473 54.1093C29.7473 53.6587 29.3787 53.29 28.9281 53.29H22.4967C22.046 53.29 21.6774 53.6587 21.6774 54.1093C21.6774 54.5599 22.0392 54.9286 22.4967 54.9286Z" fill="white"/>
<path d="M35.3664 52.0814H37.5102C37.9608 52.0814 38.3295 51.7128 38.3295 51.2622C38.3295 50.8115 37.9608 50.4429 37.5102 50.4429H35.3664C34.9158 50.4429 34.5471 50.8115 34.5471 51.2622C34.5471 51.7128 34.909 52.0814 35.3664 52.0814Z" fill="white"/>
<path d="M35.3664 54.9286H37.5102C37.9608 54.9286 38.3295 54.5599 38.3295 54.1093C38.3295 53.6587 37.9608 53.29 37.5102 53.29H35.3664C34.9158 53.29 34.5471 53.6587 34.5471 54.1093C34.5471 54.5599 34.909 54.9286 35.3664 54.9286Z" fill="white"/>
<path d="M22.4967 45.5067H31.0787C31.5293 45.5067 31.898 45.1381 31.898 44.6875C31.898 44.2368 31.5293 43.8682 31.0787 43.8682H22.4967C22.046 43.8682 21.6774 44.2368 21.6774 44.6875C21.6774 45.1381 22.0392 45.5067 22.4967 45.5067Z" fill="white"/>
<path d="M22.4967 48.3466H28.9281C29.3787 48.3466 29.7473 47.9779 29.7473 47.5273C29.7473 47.0767 29.3787 46.708 28.9281 46.708H22.4967C22.046 46.708 21.6774 47.0767 21.6774 47.5273C21.6774 47.9779 22.0392 48.3466 22.4967 48.3466Z" fill="white"/>
<path d="M35.3664 45.5067H37.5102C37.9608 45.5067 38.3295 45.1381 38.3295 44.6875C38.3295 44.2368 37.9608 43.8682 37.5102 43.8682H35.3664C34.9158 43.8682 34.5471 44.2368 34.5471 44.6875C34.5471 45.1381 34.909 45.5067 35.3664 45.5067Z" fill="white"/>
<path d="M35.3664 48.3466H37.5102C37.9608 48.3466 38.3295 47.9779 38.3295 47.5273C38.3295 47.0767 37.9608 46.708 37.5102 46.708H35.3664C34.9158 46.708 34.5471 47.0767 34.5471 47.5273C34.5471 47.9779 34.909 48.3466 35.3664 48.3466Z" fill="white"/>
<path d="M22.4967 58.7377H31.0787C31.5293 58.7377 31.898 58.369 31.898 57.9184C31.898 57.4678 31.5293 57.0991 31.0787 57.0991H22.4967C22.046 57.0991 21.6774 57.4678 21.6774 57.9184C21.6774 58.369 22.0392 58.7377 22.4967 58.7377Z" fill="white"/>
<path d="M22.4967 61.578H28.9281C29.3787 61.578 29.7473 61.2093 29.7473 60.7587C29.7473 60.3081 29.3787 59.9395 28.9281 59.9395H22.4967C22.046 59.9395 21.6774 60.3081 21.6774 60.7587C21.6774 61.2093 22.0392 61.578 22.4967 61.578Z" fill="white"/>
<path d="M35.3664 58.7377H37.5102C37.9608 58.7377 38.3295 58.369 38.3295 57.9184C38.3295 57.4678 37.9608 57.0991 37.5102 57.0991H35.3664C34.9158 57.0991 34.5471 57.4678 34.5471 57.9184C34.5471 58.369 34.909 58.7377 35.3664 58.7377Z" fill="white"/>
<path d="M35.3664 61.578H37.5102C37.9608 61.578 38.3295 61.2093 38.3295 60.7587C38.3295 60.3081 37.9608 59.9395 37.5102 59.9395H35.3664C34.9158 59.9395 34.5471 60.3081 34.5471 60.7587C34.5471 61.2093 34.909 61.578 35.3664 61.578Z" fill="white"/>
</svg>
