<svg width="38" height="38" viewBox="0 0 38 38" fill="none" xmlns="http://www.w3.org/2000/svg">
<circle cx="18.8624" cy="19.204" r="17.0283" stroke="white" stroke-width="3"/>
<g clip-path="url(#clip0)">
<path d="M18.862 19.7684C21.421 19.7683 22.3417 17.2061 22.5828 15.1014C22.8797 12.5085 21.6537 10.5571 18.862 10.5571C16.0708 10.5571 14.8441 12.5084 15.1412 15.1014C15.3825 17.206 16.303 19.7686 18.862 19.7684Z" fill="white"/>
<path d="M25.7843 25.8694C25.7563 25.0527 25.6606 24.2323 25.5181 23.4283C25.3454 22.4543 25.1256 21.0264 24.2753 20.3917C23.7835 20.0247 23.1467 19.9043 22.5837 19.683C22.3097 19.5753 22.0642 19.4684 21.8339 19.3467C21.0563 20.1994 20.0424 20.6454 18.8617 20.6455C17.6813 20.6455 16.6675 20.1994 15.89 19.3467C15.6596 19.4684 15.4142 19.5754 15.1402 19.683C14.5772 19.9043 13.9404 20.0246 13.4486 20.3917C12.5982 21.0264 12.3785 22.4543 12.2058 23.4283C12.0633 24.2323 11.9675 25.0527 11.9396 25.8694C11.9179 26.502 12.2303 26.5907 12.7595 26.7817C13.4222 27.0207 14.1064 27.1981 14.7951 27.3435C16.1254 27.6244 17.4966 27.8403 18.8619 27.85C20.2272 27.8403 21.5983 27.6244 22.9286 27.3435C23.6173 27.1981 24.3016 27.0207 24.9642 26.7817C25.4936 26.5907 25.806 26.5021 25.7843 25.8694Z" fill="white"/>
</g>
<defs>
<clipPath id="clip0">
<rect width="17.293" height="17.293" fill="white" transform="translate(10.2155 10.5571)"/>
</clipPath>
</defs>
</svg>
