<svg width="60" height="60" viewBox="0 0 60 60" fill="none" xmlns="http://www.w3.org/2000/svg">
<circle cx="30" cy="30" r="28.5" stroke="white" stroke-width="3"/>
<path d="M44.679 12H15.3212C14.8706 12 14.502 12.3687 14.502 12.8193C14.502 13.2699 14.8706 13.6386 15.3212 13.6386H17.0895V43.1602C17.0895 43.4606 17.2534 43.7406 17.5197 43.8839C17.7859 44.0273 18.1068 44.0137 18.3594 43.843L21.9165 41.4739L25.4872 43.8498C25.7603 44.0341 26.1222 44.0341 26.3953 43.8498L29.9523 41.4807L33.5231 43.8566C33.7962 44.041 34.158 44.041 34.4311 43.8566L37.9882 41.4875L41.5589 43.8635C41.6955 43.9522 41.8525 44 42.0095 44C42.1392 44 42.2758 43.9659 42.3987 43.9044C42.665 43.761 42.8288 43.4811 42.8288 43.1807L42.8152 13.6591H44.679C45.1296 13.6591 45.4983 13.2904 45.4983 12.8398C45.4983 12.3892 45.1296 12 44.679 12ZM41.1971 41.6309L38.4456 39.8012C38.1725 39.6168 37.8107 39.6168 37.5376 39.8012L33.9805 42.1771L30.4098 39.8012C30.1367 39.6168 29.7748 39.6168 29.5017 39.8012L25.9447 42.1703L22.3739 39.8012C22.1008 39.6168 21.739 39.6168 21.4659 39.8012L18.7281 41.6241V13.6317H41.1902L41.1971 41.6309Z" fill="white"/>
<path d="M22.497 25.0813H31.0791C31.5297 25.0813 31.8983 24.7126 31.8983 24.262C31.8983 23.8114 31.5297 23.4427 31.0791 23.4427H22.497C22.0464 23.4427 21.6777 23.8114 21.6777 24.262C21.6777 24.7126 22.0396 25.0813 22.497 25.0813Z" fill="white"/>
<path d="M22.497 27.9284H28.9284C29.379 27.9284 29.7477 27.5597 29.7477 27.1091C29.7477 26.6585 29.379 26.2898 28.9284 26.2898H22.497C22.0464 26.2898 21.6777 26.6585 21.6777 27.1091C21.6777 27.5597 22.0396 27.9284 22.497 27.9284Z" fill="white"/>
<path d="M35.3667 25.0813H37.5105C37.9611 25.0813 38.3297 24.7126 38.3297 24.262C38.3297 23.8114 37.9611 23.4427 37.5105 23.4427H35.3667C34.916 23.4427 34.5474 23.8114 34.5474 24.262C34.5474 24.7126 34.9092 25.0813 35.3667 25.0813Z" fill="white"/>
<path d="M35.3667 27.9284H37.5105C37.9611 27.9284 38.3297 27.5597 38.3297 27.1091C38.3297 26.6585 37.9611 26.2898 37.5105 26.2898H35.3667C34.916 26.2898 34.5474 26.6585 34.5474 27.1091C34.5474 27.5597 34.9092 27.9284 35.3667 27.9284Z" fill="white"/>
<path d="M22.497 18.5065H31.0791C31.5297 18.5065 31.8983 18.1378 31.8983 17.6872C31.8983 17.2366 31.5297 16.8679 31.0791 16.8679H22.497C22.0464 16.8679 21.6777 17.2366 21.6777 17.6872C21.6777 18.1378 22.0396 18.5065 22.497 18.5065Z" fill="white"/>
<path d="M22.497 21.3467H28.9284C29.379 21.3467 29.7477 20.978 29.7477 20.5274C29.7477 20.0768 29.379 19.7081 28.9284 19.7081H22.497C22.0464 19.7081 21.6777 20.0768 21.6777 20.5274C21.6777 20.978 22.0396 21.3467 22.497 21.3467Z" fill="white"/>
<path d="M35.3667 18.5065H37.5105C37.9611 18.5065 38.3297 18.1378 38.3297 17.6872C38.3297 17.2366 37.9611 16.8679 37.5105 16.8679H35.3667C34.916 16.8679 34.5474 17.2366 34.5474 17.6872C34.5474 18.1378 34.9092 18.5065 35.3667 18.5065Z" fill="white"/>
<path d="M35.3667 21.3467H37.5105C37.9611 21.3467 38.3297 20.978 38.3297 20.5274C38.3297 20.0768 37.9611 19.7081 37.5105 19.7081H35.3667C34.916 19.7081 34.5474 20.0768 34.5474 20.5274C34.5474 20.978 34.9092 21.3467 35.3667 21.3467Z" fill="white"/>
<path d="M22.497 31.7379H31.0791C31.5297 31.7379 31.8983 31.3693 31.8983 30.9187C31.8983 30.468 31.5297 30.0994 31.0791 30.0994H22.497C22.0464 30.0994 21.6777 30.468 21.6777 30.9187C21.6777 31.3693 22.0396 31.7379 22.497 31.7379Z" fill="white"/>
<path d="M22.497 34.5783H28.9284C29.379 34.5783 29.7477 34.2096 29.7477 33.759C29.7477 33.3084 29.379 32.9397 28.9284 32.9397H22.497C22.0464 32.9397 21.6777 33.3084 21.6777 33.759C21.6777 34.2096 22.0396 34.5783 22.497 34.5783Z" fill="white"/>
<path d="M35.3667 31.7379H37.5105C37.9611 31.7379 38.3297 31.3693 38.3297 30.9187C38.3297 30.468 37.9611 30.0994 37.5105 30.0994H35.3667C34.916 30.0994 34.5474 30.468 34.5474 30.9187C34.5474 31.3693 34.9092 31.7379 35.3667 31.7379Z" fill="white"/>
<path d="M35.3667 34.5783H37.5105C37.9611 34.5783 38.3297 34.2096 38.3297 33.759C38.3297 33.3084 37.9611 32.9397 37.5105 32.9397H35.3667C34.916 32.9397 34.5474 33.3084 34.5474 33.759C34.5474 34.2096 34.9092 34.5783 35.3667 34.5783Z" fill="white"/>
</svg>
