<svg width="99" height="61" viewBox="0 0 99 61" fill="none" xmlns="http://www.w3.org/2000/svg">
<g clip-path="url(#clip0)">
<path d="M80.4345 18.8698C80.316 18.8704 80.198 18.8551 80.0836 18.8243L47.6263 9.93705C47.3489 9.8611 47.1041 9.69633 46.9298 9.46811C46.7554 9.23988 46.6611 8.96084 46.6614 8.67394V1.30873C46.6617 1.10753 46.7086 0.909118 46.7984 0.72892C46.8881 0.548722 47.0183 0.391591 47.1789 0.269735C47.3395 0.14788 47.526 0.0645831 47.7241 0.026321C47.9222 -0.011941 48.1265 -0.00413866 48.3211 0.0491209L80.7889 8.92236C81.0664 8.99831 81.3111 9.16307 81.4855 9.3913C81.6598 9.61952 81.7541 9.89856 81.7539 10.1855V17.5542C81.7548 17.7272 81.7213 17.8987 81.6553 18.0587C81.5893 18.2188 81.4922 18.3642 81.3695 18.4865C81.2468 18.6089 81.101 18.7057 80.9405 18.7715C80.78 18.8373 80.608 18.8707 80.4345 18.8698ZM49.2755 7.67325L79.1222 15.8292V11.1722L49.2755 3.0232V7.67325Z" fill="#E99C00"/>
<path d="M97.6878 60.9999C97.5693 61.0005 97.4512 60.9852 97.3369 60.9544L47.6263 47.3681C47.3494 47.2923 47.1051 47.1281 46.9308 46.9005C46.7565 46.673 46.6619 46.3948 46.6614 46.1085V8.67014C46.6612 8.46864 46.7077 8.26982 46.7972 8.08918C46.8867 7.90854 47.0169 7.75095 47.1775 7.6287C47.3381 7.50645 47.5249 7.42285 47.7233 7.3844C47.9216 7.34595 48.1262 7.35369 48.3211 7.40703L80.7889 16.2803C81.0664 16.3562 81.3111 16.521 81.4855 16.7492C81.6598 16.9774 81.7541 17.2565 81.7539 17.5434V26.777L98.0422 31.2276C98.319 31.3034 98.5634 31.4676 98.7376 31.6952C98.9119 31.9227 99.0066 32.2009 99.0071 32.4872V59.6913C99.0071 60.0383 98.8688 60.3712 98.6227 60.6166C98.3766 60.862 98.0428 60.9999 97.6948 60.9999H97.6878ZM49.2755 45.1113L96.3719 57.9803V33.4879L80.0836 29.0373C79.8062 28.9614 79.5614 28.7966 79.3871 28.5684C79.2127 28.3401 79.1184 28.0611 79.1187 27.7742V18.5476L49.2755 10.3916V37.7391L89.3506 48.6907V37.2352C89.3506 36.8882 89.4889 36.5553 89.735 36.3099C89.9811 36.0645 90.3149 35.9267 90.6629 35.9267C91.011 35.9267 91.3448 36.0645 91.5909 36.3099C91.837 36.5553 91.9753 36.8882 91.9753 37.2352V50.4052C91.9749 50.6063 91.928 50.8048 91.8383 50.985C91.7485 51.1652 91.6183 51.3223 91.4577 51.4441C91.2972 51.566 91.1106 51.6493 90.9125 51.6876C90.7144 51.7258 90.5101 51.718 90.3156 51.6648L49.2615 40.4507L49.2755 45.1113ZM62.7462 38.054C61.9942 38.0509 61.246 37.9473 60.5215 37.7461C55.4617 36.364 51.4861 30.7658 51.4861 25.031C51.4861 22.5818 52.1879 20.4825 53.5669 18.887C55.4126 16.7491 58.2828 15.9234 61.2058 16.7211C66.2691 18.1207 70.2341 23.691 70.2341 29.4362C70.2447 34.4291 67.0937 38.0505 62.7462 38.0505V38.054ZM58.9987 19.0339C58.3464 19.0239 57.7 19.1587 57.1065 19.4286C56.5129 19.6985 55.987 20.0967 55.567 20.5944C54.6336 21.6756 54.1213 23.2536 54.1213 25.031C54.1213 29.5796 57.3039 34.1527 61.2163 35.2199C61.7144 35.3587 62.2289 35.4305 62.7462 35.4333C65.6164 35.4333 67.6235 32.9841 67.6235 29.4362C67.6235 24.8876 64.441 20.3145 60.525 19.2438C60.028 19.1053 59.5147 19.0335 58.9987 19.0304V19.0339Z" fill="#E99C00"/>
<path d="M97.6877 33.7962C97.5693 33.797 97.4512 33.7817 97.3369 33.7507L80.0836 29.0377C79.8061 28.9617 79.5614 28.797 79.387 28.5687C79.2127 28.3405 79.1184 28.0615 79.1187 27.7746V10.1786C79.1191 9.90566 79.2051 9.63973 79.3646 9.41798C79.5241 9.19623 79.7491 9.02975 80.0082 8.94184C80.2673 8.85392 80.5474 8.84897 80.8095 8.92768C81.0715 9.00639 81.3023 9.16482 81.4696 9.3808L98.7229 31.6898C98.8709 31.8844 98.9613 32.1164 98.984 32.3596C99.0066 32.6028 98.9606 32.8474 98.851 33.0658C98.7415 33.2843 98.5729 33.4678 98.3642 33.5956C98.1555 33.7235 97.9151 33.7905 97.6702 33.7892L97.6877 33.7962ZM81.7468 26.7774L94.2595 30.1958L81.7468 14.0169V26.7774Z" fill="#E99C00"/>
<path d="M4.64908 59.1068C3.62705 59.12 2.62922 58.7966 1.81038 58.1866C1.22268 57.7229 0.752589 57.1278 0.438068 56.4495C0.123546 55.7712 -0.0265904 55.0286 -0.000212318 54.2818V18.6419C-0.000212318 15.5104 2.39987 12.4033 5.45963 11.5671L47.626 0.0451905C47.9615 -0.0476064 48.3202 -0.00370838 48.6233 0.167225C48.9263 0.338158 49.1488 0.622125 49.2419 0.956658C49.3349 1.29119 49.2909 1.64889 49.1195 1.95105C48.9481 2.25322 48.6633 2.47511 48.3278 2.56791L6.15439 14.0898C4.24204 14.6147 2.62444 16.7 2.62444 18.6384V54.2678C2.60414 54.6125 2.66495 54.9572 2.80203 55.2744C2.93912 55.5915 3.14866 55.8723 3.41394 56.0942C3.71274 56.2955 4.05442 56.4246 4.41192 56.4713C4.76942 56.5181 5.13293 56.4812 5.47367 56.3637L47.626 44.8452C47.9615 44.7524 48.3202 44.7963 48.6233 44.9673C48.9263 45.1382 49.1488 45.4222 49.2419 45.7567C49.3349 46.0912 49.2909 46.4489 49.1195 46.7511C48.9481 47.0533 48.6633 47.2752 48.3278 47.368L6.15439 58.8864C5.66477 59.0267 5.15848 59.1008 4.64908 59.1068Z" fill="#E99C00"/>
<path d="M1.30891 34.7442C1.13657 34.7442 0.965923 34.7103 0.806704 34.6446C0.647485 34.5788 0.502816 34.4824 0.380956 34.3609C0.259095 34.2394 0.162429 34.0951 0.0964789 33.9364C0.0305283 33.7776 -0.00341618 33.6074 -0.00341618 33.4356V23.5022C-0.00388989 23.2157 0.089907 22.9371 0.263582 22.7089C0.437257 22.4807 0.681214 22.3157 0.95802 22.2391L47.6263 9.48906C47.8212 9.43572 48.0258 9.42798 48.2241 9.46643C48.4225 9.50488 48.6093 9.58848 48.7699 9.71073C48.9305 9.83298 49.0607 9.99057 49.1502 10.1712C49.2397 10.3519 49.2862 10.5507 49.286 10.7522V20.6891C49.2855 20.9754 49.1909 21.2536 49.0166 21.4811C48.8423 21.7087 48.598 21.8729 48.3211 21.9487L1.6598 34.6987C1.54542 34.7295 1.42739 34.7448 1.30891 34.7442ZM2.62124 24.4994V31.7211L46.6544 19.6884V12.4666L2.62124 24.4994Z" fill="#E99C00"/>
<path d="M10.2529 51.2768C8.34759 51.2768 6.96509 49.8492 6.96509 47.8793V43.1908C6.99959 42.1229 7.36881 41.0926 8.02084 40.2447C8.67288 39.3969 9.57496 38.774 10.6003 38.4638L19.9445 35.9096C20.2873 35.8146 20.6414 35.7663 20.9972 35.7661C22.9025 35.7661 24.285 37.1937 24.285 39.1636V43.8521C24.2481 44.9177 23.8778 45.9451 23.2259 46.7903C22.574 47.6355 21.6732 48.2561 20.6498 48.5651L11.3056 51.1193C10.9635 51.2191 10.6093 51.2721 10.2529 51.2768ZM20.9831 38.3973C20.8645 38.3979 20.7465 38.4143 20.6322 38.4463L11.288 41.0005C10.8176 41.1552 10.4041 41.4462 10.1004 41.8363C9.79664 42.2265 9.61641 42.698 9.58272 43.1908V47.8793C9.58272 48.2292 9.69852 48.6596 10.2494 48.6596C10.3681 48.6591 10.4861 48.6426 10.6003 48.6106L19.9445 46.0564C20.4149 45.9017 20.8284 45.6107 21.1321 45.2206C21.4359 44.8304 21.6161 44.3589 21.6498 43.8661V39.1636C21.6603 38.8137 21.534 38.3938 20.9831 38.3938V38.3973Z" fill="#E99C00"/>
</g>
<defs>
<clipPath id="clip0">
<rect width="99" height="61" fill="white"/>
</clipPath>
</defs>
</svg>
