<svg width="60" height="112" viewBox="0 0 60 112" fill="none" xmlns="http://www.w3.org/2000/svg">
<circle cx="30" cy="30" r="28.5" stroke="white" stroke-width="3"/>
<circle cx="30.5" cy="78.5" r="7.5" fill="white"/>
<circle cx="30.5" cy="104.5" r="7.5" fill="white"/>
<g clip-path="url(#clip0)">
<path d="M41.2489 25.8056C41.2058 25.8058 41.1629 25.8003 41.1213 25.7892L29.3187 22.5839C29.2178 22.5566 29.1288 22.4971 29.0654 22.4148C29.002 22.3325 28.9677 22.2319 28.9678 22.1284V19.4721C28.9679 19.3995 28.9849 19.328 29.0176 19.263C29.0502 19.198 29.0976 19.1413 29.156 19.0974C29.2144 19.0534 29.2822 19.0234 29.3542 19.0096C29.4263 18.9958 29.5005 18.9986 29.5713 19.0178L41.3778 22.218C41.4787 22.2454 41.5677 22.3048 41.6311 22.3871C41.6945 22.4694 41.7288 22.5701 41.7287 22.6735V25.3311C41.729 25.3935 41.7168 25.4554 41.6928 25.5131C41.6689 25.5708 41.6335 25.6232 41.5889 25.6674C41.5443 25.7115 41.4913 25.7464 41.4329 25.7702C41.3745 25.7939 41.312 25.8059 41.2489 25.8056ZM29.9184 21.7675L40.7717 24.709V23.0294L29.9184 20.0904V21.7675Z" fill="white"/>
<path d="M47.5228 41.0002C47.4797 41.0004 47.4368 40.9949 47.3952 40.9838L29.3187 36.0838C29.218 36.0565 29.1291 35.9972 29.0658 35.9152C29.0024 35.8331 28.968 35.7328 28.9678 35.6295V22.1272C28.9677 22.0545 28.9846 21.9828 29.0172 21.9176C29.0497 21.8525 29.097 21.7957 29.1555 21.7516C29.2139 21.7075 29.2818 21.6773 29.3539 21.6635C29.426 21.6496 29.5004 21.6524 29.5713 21.6716L41.3778 24.8718C41.4787 24.8992 41.5677 24.9586 41.6311 25.0409C41.6945 25.1232 41.7288 25.2239 41.7287 25.3274V28.6575L47.6517 30.2627C47.7524 30.29 47.8412 30.3492 47.9046 30.4313C47.968 30.5133 48.0024 30.6137 48.0026 30.7169V40.5282C48.0026 40.6534 47.9523 40.7734 47.8628 40.8619C47.7733 40.9505 47.6519 41.0002 47.5254 41.0002H47.5228ZM29.9184 35.2699L47.0443 39.9112V31.0778L41.1213 29.4727C41.0204 29.4453 40.9314 29.3859 40.868 29.3036C40.8046 29.2213 40.7703 29.1206 40.7704 29.0172V25.6895L29.9184 22.748V32.6111L44.4911 36.5608V32.4293C44.4911 32.3042 44.5414 32.1841 44.6309 32.0956C44.7204 32.0071 44.8418 31.9574 44.9683 31.9574C45.0949 31.9574 45.2163 32.0071 45.3058 32.0956C45.3953 32.1841 45.4456 32.3042 45.4456 32.4293V37.1791C45.4454 37.2517 45.4284 37.3233 45.3957 37.3882C45.3631 37.4532 45.3157 37.5099 45.2574 37.5539C45.199 37.5978 45.1311 37.6278 45.0591 37.6416C44.9871 37.6554 44.9128 37.6526 44.842 37.6334L29.9133 33.589L29.9184 35.2699ZM34.8168 32.7246C34.5433 32.7235 34.2713 32.6861 34.0078 32.6136C32.1679 32.1151 30.7222 30.0961 30.7222 28.0278C30.7222 27.1445 30.9774 26.3873 31.4789 25.8119C32.15 25.0409 33.1938 24.7431 34.2566 25.0308C36.0979 25.5356 37.5397 27.5445 37.5397 29.6166C37.5435 31.4173 36.3977 32.7234 34.8168 32.7234V32.7246ZM33.4541 25.8649C33.2169 25.8613 32.9818 25.9099 32.766 26.0073C32.5502 26.1046 32.3589 26.2482 32.2062 26.4277C31.8668 26.8177 31.6805 27.3868 31.6805 28.0278C31.6805 29.6683 32.8378 31.3176 34.2605 31.7025C34.4416 31.7525 34.6287 31.7784 34.8168 31.7795C35.8605 31.7795 36.5904 30.8961 36.5904 29.6166C36.5904 27.9761 35.4331 26.3268 34.0091 25.9406C33.8284 25.8907 33.6417 25.8648 33.4541 25.8637V25.8649Z" fill="white"/>
<path d="M47.5228 31.1887C47.4797 31.189 47.4368 31.1835 47.3952 31.1723L41.1213 29.4725C41.0204 29.4452 40.9314 29.3857 40.868 29.3034C40.8046 29.2211 40.7703 29.1205 40.7704 29.017V22.6709C40.7705 22.5725 40.8018 22.4766 40.8598 22.3966C40.9178 22.3166 40.9996 22.2566 41.0939 22.2249C41.1881 22.1932 41.2899 22.1914 41.3852 22.2198C41.4805 22.2482 41.5645 22.3053 41.6253 22.3832L47.8992 30.4291C47.953 30.4992 47.9859 30.5829 47.9941 30.6706C48.0024 30.7583 47.9856 30.8465 47.9458 30.9253C47.906 31.0041 47.8446 31.0703 47.7688 31.1164C47.6929 31.1625 47.6055 31.1867 47.5164 31.1862L47.5228 31.1887ZM41.7261 28.6574L46.2762 29.8902L41.7261 24.0552V28.6574Z" fill="white"/>
<path d="M13.6903 40.3171C13.3187 40.3219 12.9558 40.2052 12.6581 39.9852C12.4444 39.818 12.2734 39.6034 12.159 39.3587C12.0447 39.1141 11.9901 38.8463 11.9997 38.5769V25.7232C11.9997 24.5938 12.8724 23.4732 13.9851 23.1716L29.3183 19.0162C29.4403 18.9827 29.5707 18.9986 29.6809 19.0602C29.7911 19.1219 29.872 19.2243 29.9059 19.3449C29.9397 19.4656 29.9237 19.5946 29.8614 19.7036C29.7991 19.8125 29.6955 19.8926 29.5735 19.926L14.2377 24.0815C13.5423 24.2708 12.9541 25.0229 12.9541 25.722V38.5719C12.9467 38.6962 12.9688 38.8205 13.0187 38.9349C13.0685 39.0493 13.1447 39.1506 13.2412 39.2306C13.3498 39.3032 13.4741 39.3497 13.6041 39.3666C13.7341 39.3835 13.8663 39.3702 13.9902 39.3278L29.3183 35.1736C29.4403 35.1401 29.5707 35.156 29.6809 35.2176C29.7911 35.2793 29.872 35.3817 29.9059 35.5023C29.9397 35.623 29.9237 35.752 29.8614 35.861C29.7991 35.9699 29.6955 36.05 29.5735 36.0834L14.2377 40.2376C14.0597 40.2882 13.8756 40.315 13.6903 40.3171Z" fill="white"/>
<path d="M12.4759 31.5305C12.4133 31.5305 12.3512 31.5183 12.2933 31.4946C12.2354 31.4709 12.1828 31.4361 12.1385 31.3923C12.0942 31.3485 12.059 31.2964 12.035 31.2392C12.0111 31.1819 11.9987 31.1205 11.9987 31.0586V27.476C11.9985 27.3727 12.0327 27.2722 12.0958 27.1899C12.159 27.1076 12.2477 27.0481 12.3483 27.0205L29.3186 22.4221C29.3895 22.4029 29.4639 22.4001 29.536 22.4139C29.6081 22.4278 29.6761 22.458 29.7345 22.5021C29.7929 22.5461 29.8402 22.603 29.8728 22.6681C29.9053 22.7333 29.9222 22.805 29.9222 22.8777V26.4615C29.922 26.5647 29.8876 26.6651 29.8242 26.7471C29.7608 26.8292 29.672 26.8884 29.5713 26.9157L12.6035 31.5141C12.5619 31.5252 12.519 31.5308 12.4759 31.5305ZM12.9531 27.8357V30.4402L28.9652 26.1006V23.496L12.9531 27.8357Z" fill="white"/>
<path d="M15.7284 37.4929C15.0355 37.4929 14.5328 36.9781 14.5328 36.2676V34.5767C14.5453 34.1915 14.6796 33.82 14.9167 33.5142C15.1538 33.2084 15.4818 32.9837 15.8547 32.8719L19.2526 31.9507C19.3772 31.9164 19.506 31.899 19.6353 31.8989C20.3282 31.8989 20.8309 32.4138 20.8309 33.1242V34.8152C20.8175 35.1995 20.6828 35.57 20.4458 35.8749C20.2087 36.1797 19.8812 36.4035 19.509 36.515L16.1111 37.4362C15.9867 37.4721 15.858 37.4912 15.7284 37.4929ZM19.6302 32.8479C19.5871 32.8481 19.5442 32.854 19.5026 32.8655L16.1048 33.7867C15.9337 33.8425 15.7833 33.9475 15.6729 34.0882C15.5624 34.2289 15.4969 34.399 15.4846 34.5767V36.2676C15.4846 36.3938 15.5268 36.549 15.7271 36.549C15.7702 36.5488 15.8131 36.5429 15.8547 36.5314L19.2526 35.6102C19.4236 35.5544 19.574 35.4494 19.6844 35.3087C19.7949 35.168 19.8604 34.998 19.8727 34.8202V33.1242C19.8765 32.998 19.8306 32.8466 19.6302 32.8466V32.8479Z" fill="white"/>
</g>
<defs>
<clipPath id="clip0">
<rect width="36" height="22" fill="white" transform="translate(12 19)"/>
</clipPath>
</defs>
</svg>
