<svg width="36" height="22" viewBox="0 0 36 22" fill="none" xmlns="http://www.w3.org/2000/svg">
<g clip-path="url(#clip0)">
<path d="M29.2489 6.80559C29.2058 6.80582 29.1629 6.8003 29.1213 6.78918L17.3186 3.58395C17.2177 3.55656 17.1287 3.49713 17.0653 3.41482C17.0019 3.33251 16.9676 3.23187 16.9677 3.1284V0.472096C16.9679 0.399532 16.9849 0.327975 17.0176 0.262985C17.0502 0.197996 17.0976 0.141325 17.1559 0.0973777C17.2143 0.0534299 17.2822 0.0233883 17.3542 0.00958888C17.4262 -0.00421055 17.5005 -0.00139657 17.5713 0.0178118L29.3778 3.218C29.4786 3.24539 29.5676 3.30481 29.631 3.38712C29.6944 3.46943 29.7287 3.57007 29.7286 3.67354V6.33111C29.729 6.39351 29.7168 6.45536 29.6928 6.51308C29.6688 6.5708 29.6335 6.62323 29.5889 6.66736C29.5443 6.71149 29.4912 6.74642 29.4329 6.77015C29.3745 6.79388 29.312 6.80592 29.2489 6.80559ZM17.9183 2.7675L28.7717 5.70899V4.0294L17.9183 1.09043V2.7675Z" fill="#A8A8A8"/>
<path d="M35.5228 22.0002C35.4797 22.0004 35.4368 21.9949 35.3952 21.9838L17.3186 17.0838C17.2179 17.0565 17.1291 16.9972 17.0657 16.9152C17.0023 16.8331 16.9679 16.7328 16.9677 16.6295V3.12717C16.9677 3.0545 16.9846 2.98279 17.0171 2.91764C17.0497 2.85249 17.097 2.79566 17.1554 2.75157C17.2138 2.70748 17.2818 2.67733 17.3539 2.66346C17.426 2.64959 17.5004 2.65238 17.5713 2.67162L29.3778 5.8718C29.4786 5.89919 29.5676 5.95862 29.631 6.04093C29.6944 6.12324 29.7287 6.22388 29.7286 6.32735V9.65751L35.6517 11.2627C35.7523 11.29 35.8412 11.3492 35.9046 11.4313C35.9679 11.5133 36.0024 11.6137 36.0025 11.7169V21.5282C36.0025 21.6534 35.9523 21.7734 35.8628 21.8619C35.7733 21.9505 35.6519 22.0002 35.5253 22.0002H35.5228ZM17.9183 16.2699L35.0443 20.9112V12.0778L29.1213 10.4727C29.0204 10.4453 28.9314 10.3859 28.868 10.3036C28.8046 10.2213 28.7703 10.1206 28.7704 10.0172V6.68952L17.9183 3.74802V13.6111L32.4911 17.5608V13.4293C32.4911 13.3042 32.5414 13.1841 32.6309 13.0956C32.7204 13.0071 32.8417 12.9574 32.9683 12.9574C33.0949 12.9574 33.2163 13.0071 33.3057 13.0956C33.3952 13.1841 33.4455 13.3042 33.4455 13.4293V18.1791C33.4454 18.2517 33.4283 18.3233 33.3957 18.3882C33.3631 18.4532 33.3157 18.5099 33.2573 18.5539C33.1989 18.5978 33.1311 18.6278 33.0591 18.6416C32.987 18.6554 32.9127 18.6526 32.842 18.6334L17.9132 14.589L17.9183 16.2699ZM22.8168 13.7246C22.5433 13.7235 22.2712 13.6861 22.0078 13.6136C20.1679 13.1151 18.7222 11.0961 18.7222 9.02782C18.7222 8.14449 18.9774 7.38735 19.4788 6.81192C20.15 6.0409 21.1937 5.74309 22.2566 6.0308C24.0978 6.53556 25.5397 8.54451 25.5397 10.6166C25.5435 12.4173 24.3977 13.7234 22.8168 13.7234V13.7246ZM21.454 6.86492C21.2168 6.8613 20.9818 6.90992 20.766 7.00726C20.5501 7.10461 20.3589 7.24823 20.2061 7.42773C19.8667 7.81766 19.6804 8.38678 19.6804 9.02782C19.6804 10.6683 20.8377 12.3176 22.2604 12.7025C22.4416 12.7525 22.6287 12.7784 22.8168 12.7795C23.8605 12.7795 24.5903 11.8961 24.5903 10.6166C24.5903 8.97608 23.433 7.32678 22.0091 6.94064C21.8283 6.89066 21.6417 6.86477 21.454 6.86366V6.86492Z" fill="#A8A8A8"/>
<path d="M35.5228 12.1887C35.4797 12.189 35.4368 12.1835 35.3952 12.1723L29.1213 10.4725C29.0204 10.4452 28.9314 10.3857 28.868 10.3034C28.8046 10.2211 28.7703 10.1205 28.7704 10.017V3.6709C28.7706 3.57248 28.8018 3.47657 28.8598 3.39659C28.9178 3.31662 28.9997 3.25657 29.0939 3.22487C29.1881 3.19316 29.29 3.19138 29.3853 3.21976C29.4806 3.24815 29.5645 3.30529 29.6253 3.38318L35.8992 11.4291C35.953 11.4992 35.9859 11.5829 35.9942 11.6706C36.0024 11.7583 35.9857 11.8465 35.9458 11.9253C35.906 12.0041 35.8447 12.0703 35.7688 12.1164C35.6929 12.1625 35.6055 12.1867 35.5164 12.1862L35.5228 12.1887ZM29.7261 9.65736L34.2762 10.8902L29.7261 5.0552V9.65736Z" fill="#A8A8A8"/>
<path d="M1.69035 21.3171C1.31871 21.3219 0.95586 21.2052 0.658101 20.9852C0.444392 20.818 0.27345 20.6034 0.159078 20.3587C0.0447067 20.1141 -0.00988841 19.8463 -0.000296378 19.5769V6.72321C-0.000296378 5.59381 0.872462 4.47324 1.9851 4.17165L17.3183 0.0162021C17.4403 -0.0172656 17.5708 -0.0014335 17.681 0.0602145C17.7912 0.121862 17.8721 0.224277 17.9059 0.344928C17.9398 0.465579 17.9238 0.594584 17.8614 0.703563C17.7991 0.812541 17.6955 0.892567 17.5735 0.926034L2.23774 5.08148C1.54234 5.27076 0.954124 6.02286 0.954124 6.72195V19.5719C0.94674 19.6962 0.968855 19.8205 1.0187 19.9349C1.06855 20.0493 1.14475 20.1506 1.24122 20.2306C1.34987 20.3032 1.47412 20.3497 1.60412 20.3666C1.73412 20.3835 1.8663 20.3702 1.99021 20.3278L17.3183 16.1736C17.4403 16.1401 17.5708 16.156 17.681 16.2176C17.7912 16.2793 17.8721 16.3817 17.9059 16.5023C17.9398 16.623 17.9238 16.752 17.8614 16.861C17.7991 16.9699 17.6955 17.05 17.5735 17.0834L2.23774 21.2376C2.0597 21.2882 1.87559 21.315 1.69035 21.3171Z" fill="#A8A8A8"/>
<path d="M0.475928 12.5305C0.41326 12.5305 0.351206 12.5183 0.293308 12.4946C0.23541 12.4709 0.182803 12.4361 0.13849 12.3923C0.0941774 12.3485 0.0590264 12.2964 0.0350444 12.2392C0.0110623 12.1819 -0.00128109 12.1205 -0.00128109 12.0586V8.47602C-0.00145334 8.37272 0.0326546 8.2722 0.0958091 8.18991C0.158964 8.10762 0.247675 8.0481 0.348332 8.02048L17.3186 3.42211C17.3895 3.40287 17.4639 3.40008 17.536 3.41395C17.6081 3.42781 17.6761 3.45797 17.7345 3.50206C17.7929 3.54614 17.8402 3.60298 17.8728 3.66813C17.9053 3.73328 17.9222 3.80498 17.9222 3.87765V7.46145C17.922 7.56471 17.8876 7.66506 17.8242 7.74712C17.7608 7.82917 17.672 7.88841 17.5713 7.91574L0.603525 12.5141C0.561933 12.5252 0.519013 12.5308 0.475928 12.5305ZM0.953138 8.83567V11.4402L16.9652 7.10055V4.49599L0.953138 8.83567Z" fill="#A8A8A8"/>
<path d="M3.72832 18.4929C3.03547 18.4929 2.53275 17.9781 2.53275 17.2676V15.5767C2.54529 15.1915 2.67955 14.82 2.91666 14.5142C3.15376 14.2084 3.48179 13.9837 3.85464 13.8719L7.25253 12.9507C7.37718 12.9164 7.50595 12.899 7.63532 12.8989C8.32817 12.8989 8.83089 13.4138 8.83089 14.1242V15.8152C8.81749 16.1995 8.68282 16.57 8.44576 16.8749C8.20871 17.1797 7.88115 17.4035 7.509 17.515L4.11111 18.4362C3.9867 18.4721 3.85793 18.4912 3.72832 18.4929ZM7.63022 13.8479C7.58707 13.8481 7.54416 13.854 7.50262 13.8655L4.10473 14.7867C3.93367 14.8425 3.78331 14.9475 3.67286 15.0882C3.5624 15.2289 3.49686 15.399 3.48461 15.5767V17.2676C3.48461 17.3938 3.52672 17.549 3.72705 17.549C3.77019 17.5488 3.81311 17.5429 3.85464 17.5314L7.25253 16.6102C7.42359 16.5544 7.57395 16.4494 7.6844 16.3087C7.79486 16.168 7.8604 15.998 7.87265 15.8202V14.1242C7.87648 13.998 7.83054 13.8466 7.63022 13.8466V13.8479Z" fill="#A8A8A8"/>
</g>
<defs>
<clipPath id="clip0">
<rect width="36" height="22" fill="white"/>
</clipPath>
</defs>
</svg>
